<?xml version="1.0" standalone="no"?>
<!DOCTYPE svg PUBLIC "-//W3C//DTD SVG 20010904//EN"
 "http://www.w3.org/TR/2001/REC-SVG-20010904/DTD/svg10.dtd">
<svg version="1.0" xmlns="http://www.w3.org/2000/svg"
 width="225.000000pt" height="225.000000pt" viewBox="0 0 225.000000 225.000000"
 preserveAspectRatio="xMidYMid meet">

<g transform="translate(0.000000,225.000000) scale(0.100000,-0.100000)"
fill="#c3073f" stroke="none">
<path d="M552 2105 c-40 -51 -40 -135 -1 -242 13 -33 19 -70 17 -100 l-3 -48
-32 95 c-18 52 -37 115 -44 140 l-12 45 -13 -30 c-21 -47 -17 -138 10 -218 18
-56 22 -83 16 -122 l-6 -50 -46 95 c-25 52 -50 106 -56 120 l-10 25 -8 -30
c-13 -50 11 -151 60 -246 24 -49 41 -89 36 -89 -4 0 -35 29 -68 65 -33 36 -62
65 -65 65 -11 0 6 -64 29 -111 13 -26 52 -78 88 -117 65 -71 92 -109 83 -119
-9 -9 -46 8 -78 35 l-32 26 8 -25 c11 -35 40 -74 83 -109 38 -31 29 -40 -22
-20 -52 19 -15 -28 54 -69 l35 -21 -28 0 c-34 0 -45 -24 -23 -49 16 -17 16
-19 -4 -24 -26 -7 -26 -27 1 -34 21 -6 21 -7 3 -20 -19 -14 -18 -15 3 -32 15
-13 20 -25 16 -40 -5 -19 4 -26 30 -22 4 1 5 -10 1 -25 -5 -20 -2 -26 14 -31
13 -3 19 -10 15 -20 -3 -9 2 -16 14 -19 10 -3 23 -15 29 -27 5 -12 17 -21 27
-21 11 1 17 -5 17 -18 0 -15 5 -19 20 -15 13 3 20 0 20 -9 0 -8 9 -14 20 -14
11 0 20 -3 20 -7 0 -15 48 -30 93 -29 26 1 47 -2 47 -6 0 -4 -28 -31 -61 -60
-134 -116 -186 -170 -222 -230 -43 -72 -46 -101 -15 -134 13 -13 31 -33 40
-44 22 -24 85 -27 114 -5 10 8 29 15 41 15 12 0 30 10 40 22 12 15 30 23 52
24 40 1 57 20 72 79 5 22 15 53 21 69 l12 29 16 -39 17 -39 8 35 8 35 10 -30
c5 -16 15 -36 21 -44 9 -11 12 -9 17 10 5 24 15 26 56 14 17 -6 29 0 50 23 15
17 40 34 56 37 25 7 27 5 27 -22 0 -30 15 -53 36 -53 7 0 10 8 7 18 -7 27 40
56 67 42 27 -14 25 -21 -13 -45 -34 -21 -48 -68 -28 -88 8 -8 11 -5 11 9 0 14
13 23 49 35 43 14 51 14 77 1 54 -27 72 -51 70 -90 -1 -21 -5 -43 -9 -50 -13
-20 37 -15 56 6 10 10 17 33 17 50 0 42 13 41 30 -2 11 -29 16 -33 32 -25 27
15 34 56 13 79 -18 20 -28 26 -145 85 -102 52 -147 104 -97 113 21 4 69 -46
60 -62 -4 -6 1 -4 11 4 16 13 20 12 31 -3 16 -22 25 -11 25 32 1 34 2 35 15
17 14 -19 15 -18 15 16 0 43 -27 71 -67 67 -15 -1 -40 1 -54 5 -19 5 -39 1
-66 -12 l-39 -20 -11 28 c-7 18 -7 32 -1 38 5 5 17 36 27 68 30 103 84 105
130 6 33 -70 51 -68 52 6 0 45 2 53 10 37 6 -12 20 -27 32 -34 20 -12 20 -11
-3 15 -41 47 -90 92 -90 84 0 -5 9 -37 20 -72 23 -74 22 -68 11 -68 -4 0 -16
20 -25 44 -19 50 -41 72 -76 79 -18 3 -15 5 13 6 22 0 37 6 37 14 1 34 17 39
45 13 19 -18 40 -26 73 -28 47 -3 47 -3 50 -41 4 -43 -11 -67 -39 -67 -11 0
-19 -4 -19 -10 0 -16 17 -12 45 12 23 21 26 31 28 103 2 76 0 83 -32 133 -40
62 -88 102 -122 101 -19 -1 -76 15 -97 28 -2 1 20 30 50 65 65 76 99 134 131
219 35 92 98 214 179 345 85 140 108 197 115 292 5 62 4 72 -9 67 -20 -8 -38
-48 -38 -88 -1 -18 -7 -45 -15 -62 -14 -29 -15 -29 -9 21 10 91 -28 77 -46
-16 -12 -65 -16 -70 -25 -31 -9 43 -21 31 -29 -28 -5 -38 -18 -64 -54 -112
-85 -112 -98 -133 -127 -202 -21 -50 -43 -81 -84 -120 -30 -29 -91 -86 -134
-127 -44 -41 -99 -101 -122 -133 l-42 -57 -42 68 c-22 37 -77 113 -121 167
-96 120 -116 158 -135 261 -22 117 -22 117 -58 170 -46 67 -70 134 -65 183 4
41 3 41 -16 21 -15 -15 -21 -38 -25 -96 l-6 -77 -37 75 c-50 99 -76 174 -97
282 l-17 89 -22 -28z m1062 -1366 c-3 -5 -10 -7 -15 -3 -5 3 -7 10 -3 15 3 5
10 7 15 3 5 -3 7 -10 3 -15z m-86 -275 c24 -16 30 -50 10 -57 -20 -6 -38 3
-38 20 0 19 -32 12 -99 -20 -32 -15 -45 -27 -43 -40 2 -11 -6 -21 -21 -26 -14
-6 -27 -16 -30 -23 -3 -7 -6 -2 -6 12 -1 14 6 37 13 53 14 26 14 27 -5 17 -10
-6 -19 -15 -19 -20 0 -6 -9 -10 -20 -10 -23 0 -24 1 -9 33 9 20 21 26 60 30
27 3 68 15 91 26 53 24 87 26 116 5z m66 0 c23 -22 20 -34 -9 -34 -14 0 -25 4
-25 9 0 5 -3 16 -6 25 -8 21 19 21 40 0z m-14 -75 c0 -16 -3 -18 -19 -7 -15 9
-17 16 -9 25 13 16 28 7 28 -18z m-120 -39 c21 -17 56 -37 77 -46 77 -32 173
-96 173 -115 0 -30 -16 -30 -44 1 -14 17 -33 30 -41 30 -8 0 -15 4 -15 10 0 5
-9 14 -20 20 -18 9 -17 7 5 -26 27 -40 32 -73 13 -92 -20 -20 -29 -13 -26 22
3 45 -23 82 -76 108 -41 20 -44 20 -79 3 -34 -16 -63 -13 -52 4 2 5 21 16 42
26 l37 18 -28 23 c-15 13 -24 29 -21 34 9 15 13 13 55 -20z"/>
<path d="M1640 636 c0 -2 7 -7 16 -10 8 -3 12 -2 9 4 -6 10 -25 14 -25 6z"/>
</g>
</svg>
