<?xml version="1.0" standalone="no"?>
<!DOCTYPE svg PUBLIC "-//W3C//DTD SVG 20010904//EN"
 "http://www.w3.org/TR/2001/REC-SVG-20010904/DTD/svg10.dtd">
<svg version="1.0" xmlns="http://www.w3.org/2000/svg"
 width="335.000000pt" height="150.000000pt" viewBox="0 0 335.000000 150.000000"
 preserveAspectRatio="xMidYMid meet">

<g transform="translate(0.000000,150.000000) scale(0.100000,-0.100000)"
fill="#c3073f" stroke="none">
<path d="M2570 1340 c0 -5 7 -10 15 -10 8 0 15 5 15 10 0 6 -7 10 -15 10 -8 0
-15 -4 -15 -10z"/>
<path d="M2576 1264 c3 -48 14 -56 14 -11 0 20 -4 38 -9 41 -4 3 -7 -11 -5
-30z"/>
<path d="M557 1255 c-8 -8 -18 -11 -23 -7 -5 4 -3 0 4 -9 10 -13 10 -19 -1
-28 -8 -6 -17 -8 -20 -4 -4 3 -7 -2 -7 -13 0 -11 -18 -44 -40 -73 -22 -30 -38
-56 -35 -59 2 -3 -3 -11 -13 -19 -15 -13 -14 -13 6 -3 13 6 30 9 38 6 9 -3 28
10 49 33 39 43 71 53 119 40 45 -12 77 -50 83 -97 8 -58 -3 -89 -37 -107 -23
-12 -30 -22 -30 -44 0 -17 -11 -42 -25 -59 -13 -16 -21 -32 -18 -36 4 -4 0 -4
-8 -1 -8 3 -26 1 -40 -5 -23 -10 -23 -10 4 -5 19 4 26 2 22 -5 -9 -15 -29 -13
-106 10 -81 25 -115 51 -134 105 -10 29 -14 34 -15 17 0 -13 -4 -20 -10 -17
-5 3 -10 -1 -10 -10 0 -9 5 -13 10 -10 6 3 10 -1 10 -10 0 -9 -4 -13 -10 -10
-19 12 -10 -7 26 -51 52 -63 143 -106 240 -112 68 -4 80 -2 131 24 114 59 185
177 185 305 0 109 -62 203 -162 248 -55 25 -161 29 -183 6z m214 -116 c59 -26
60 -34 2 -14 -22 8 -61 15 -86 17 -25 2 -43 6 -40 11 9 14 75 7 124 -14z
m-259 -45 c-15 -18 -35 -33 -44 -33 -25 -1 -23 6 12 38 44 40 66 36 32 -5z
m225 -111 c-3 -10 -5 -2 -5 17 0 19 2 27 5 18 2 -10 2 -26 0 -35z m-307 -250
c0 -8 -36 16 -55 38 -16 19 -13 18 18 -5 20 -16 37 -30 37 -33z m311 7 c-13
-11 -28 -20 -35 -20 -6 0 3 9 19 20 38 25 47 25 16 0z"/>
<path d="M495 1230 c-16 -7 -17 -9 -3 -9 9 -1 20 4 23 9 7 11 7 11 -20 0z"/>
<path d="M430 1210 c0 -5 7 -7 15 -4 8 4 15 8 15 10 0 2 -7 4 -15 4 -8 0 -15
-4 -15 -10z"/>
<path d="M2552 1179 c-17 -21 -19 -27 -7 -23 15 6 40 43 33 49 -2 1 -13 -11
-26 -26z"/>
<path d="M3080 1190 c0 -5 5 -10 10 -10 6 0 10 5 10 10 0 6 -4 10 -10 10 -5 0
-10 -4 -10 -10z"/>
<path d="M1409 1151 c-65 -65 -77 -71 -151 -71 -52 0 -74 -4 -86 -17 -16 -16
-15 -16 8 -9 14 4 45 10 70 13 39 4 50 1 76 -20 23 -19 44 -27 85 -29 37 -2
53 -7 52 -15 -2 -7 7 -14 20 -15 66 -4 119 -2 123 4 3 4 -3 5 -13 1 -10 -3
-15 -3 -11 2 4 4 18 8 30 9 13 1 23 7 23 16 0 25 42 19 110 -17 60 -32 84 -54
149 -138 39 -51 177 -115 247 -115 51 0 125 21 214 61 28 12 53 22 58 21 4 -1
7 3 7 9 0 5 4 7 10 4 20 -12 68 24 75 57 4 18 18 47 30 64 13 17 24 37 25 45
4 26 0 49 -7 47 -5 -2 -19 5 -33 15 -22 15 -23 20 -13 47 6 17 7 28 2 25 -10
-7 -39 -102 -38 -124 1 -9 5 -5 9 9 7 23 8 23 9 3 1 -12 -3 -25 -9 -28 -5 -3
-10 -17 -10 -31 0 -13 -4 -24 -10 -24 -5 0 -10 -7 -10 -15 0 -16 -37 -56 -77
-82 -29 -19 -152 -35 -173 -22 -11 8 -7 9 15 5 29 -5 29 -5 5 5 -14 6 -36 15
-49 20 -20 8 -21 12 -10 27 13 15 12 16 -3 3 -24 -18 -42 -3 -75 63 -35 70
-69 113 -102 130 -15 8 -97 24 -182 35 -84 11 -181 29 -213 40 -87 31 -140 28
-177 -8z m63 -1 c-13 -6 -39 -22 -58 -36 -47 -36 -54 -25 -9 15 22 19 46 31
63 30 26 0 27 0 4 -9z m228 -73 c0 -2 -10 -12 -22 -23 l-23 -19 19 23 c18 21
26 27 26 19z m-229 -43 c17 -8 28 -18 25 -21 -3 -3 -12 -1 -20 6 -7 6 -30 12
-50 13 -20 1 -36 5 -36 10 0 13 49 9 81 -8z m599 -184 c-25 -10 -56 -19 -70
-19 -17 0 -10 5 25 18 66 24 102 25 45 1z"/>
<path d="M3025 1124 c-9 -14 -19 -42 -22 -62 l-5 -37 31 50 c17 28 31 56 31
63 0 20 -17 14 -35 -14z"/>
<path d="M230 1130 c-11 -8 -7 -9 15 -4 37 8 45 14 19 14 -10 0 -26 -5 -34
-10z"/>
<path d="M280 1080 c0 -5 5 -10 10 -10 6 0 10 5 10 10 0 6 -4 10 -10 10 -5 0
-10 -4 -10 -10z"/>
<path d="M337 1016 c-4 -32 -5 -61 -3 -63 7 -7 19 82 14 103 -2 11 -7 -8 -11
-40z"/>
<path d="M1126 1051 c-4 -7 -5 -15 -2 -18 9 -9 19 4 14 18 -4 11 -6 11 -12 0z"/>
<path d="M468 1007 c-3 -19 -2 -25 4 -19 6 6 8 18 6 28 -3 14 -5 12 -10 -9z"/>
<path d="M1416 991 c-4 -5 3 -7 14 -4 23 6 26 13 6 13 -8 0 -17 -4 -20 -9z"/>
<path d="M1695 990 c3 -5 8 -10 11 -10 2 0 4 5 4 10 0 6 -5 10 -11 10 -5 0 -7
-4 -4 -10z"/>
<path d="M2983 947 c-7 -26 -13 -61 -13 -78 0 -99 -59 -189 -124 -189 -19 0
-37 6 -39 13 -3 7 -6 5 -6 -5 -1 -29 -20 -21 -35 15 l-14 32 5 -36 c3 -24 -2
-52 -16 -84 -23 -52 -26 -69 -11 -60 6 4 9 -19 9 -62 -2 -60 -3 -63 -9 -28 -7
39 -7 39 -9 7 -2 -46 -26 -98 -51 -112 -15 -8 -20 -18 -17 -31 3 -10 2 -17 -3
-14 -4 2 -14 -12 -22 -33 -24 -60 -135 -104 -178 -69 -9 7 -33 33 -54 59 -21
26 -42 46 -46 43 -5 -3 -12 0 -16 6 -5 8 -2 10 7 5 8 -4 4 1 -8 12 -29 26 -88
36 -123 22 -21 -9 -30 -23 -42 -67 l-16 -55 27 5 c14 3 41 9 59 15 17 6 32 7
32 2 0 -4 -17 -13 -37 -19 l-38 -10 40 6 c64 10 90 6 151 -27 68 -36 109 -38
220 -9 107 27 193 69 247 118 46 42 58 64 77 138 6 24 32 73 57 110 53 77 73
134 73 206 0 46 3 53 42 89 23 21 39 40 36 43 -2 3 -15 -6 -28 -20 -14 -15
-35 -25 -52 -25 -24 0 -28 4 -28 29 0 16 -6 34 -14 41 -8 6 -16 23 -18 38 -2
22 -5 18 -15 -21z m-134 -287 c-14 -4 -38 -15 -52 -25 -24 -15 -27 -16 -27 -1
0 9 6 13 13 10 8 -3 20 2 27 11 7 8 24 15 39 14 l26 -1 -26 -8z"/>
<path d="M392 960 c0 -14 2 -19 5 -12 2 6 2 18 0 25 -3 6 -5 1 -5 -13z"/>
<path d="M1270 970 c-8 -5 -10 -10 -5 -10 6 0 17 5 25 10 8 5 11 10 5 10 -5 0
-17 -5 -25 -10z"/>
<path d="M450 960 c0 -5 5 -10 11 -10 5 0 7 5 4 10 -3 6 -8 10 -11 10 -2 0 -4
-4 -4 -10z"/>
<path d="M1340 943 c0 -11 3 -14 8 -7 4 6 14 14 22 17 10 4 8 6 -7 6 -16 1
-23 -5 -23 -16z"/>
<path d="M2262 939 c2 -6 8 -10 13 -10 5 0 11 4 13 10 2 6 -4 11 -13 11 -9 0
-15 -5 -13 -11z"/>
<path d="M2186 915 c-3 -8 -1 -15 3 -15 5 0 11 7 15 15 3 8 1 15 -3 15 -5 0
-11 -7 -15 -15z"/>
<path d="M2660 856 c0 -9 7 -16 16 -16 17 0 14 22 -4 28 -7 2 -12 -3 -12 -12z"/>
<path d="M2790 741 c0 -5 5 -13 10 -16 6 -3 10 -2 10 4 0 5 -4 13 -10 16 -5 3
-10 2 -10 -4z"/>
<path d="M3080 726 c0 -9 7 -16 16 -16 17 0 14 22 -4 28 -7 2 -12 -3 -12 -12z"/>
<path d="M1800 650 c0 -5 7 -10 15 -10 8 0 15 5 15 10 0 6 -7 10 -15 10 -8 0
-15 -4 -15 -10z"/>
<path d="M1591 636 c-6 -7 -29 -16 -51 -20 -21 -3 -42 -11 -46 -18 -5 -7 -3
-8 7 -3 8 5 5 -1 -5 -13 -22 -26 -28 -28 -20 -7 4 9 0 15 -10 15 -9 0 -16 -6
-16 -12 -1 -21 -46 -70 -77 -85 -26 -12 -26 -12 -3 -7 19 4 22 3 10 -5 -19
-13 -70 -14 -70 -1 0 5 8 7 18 4 9 -2 7 1 -5 7 -13 7 -23 17 -23 23 0 24 -61
-82 -75 -132 -14 -45 -19 -52 -36 -47 -11 4 -19 3 -18 -2 4 -21 -3 -34 -25
-48 -35 -23 -74 -3 -82 42 -4 19 -12 33 -20 33 -8 0 -17 7 -21 15 -3 9 -22 24
-42 35 -21 10 -43 26 -50 34 -8 9 -18 16 -24 16 -6 0 -2 -7 9 -15 17 -13 12
-14 -54 -15 -81 0 -135 -18 -152 -50 -9 -18 -5 -16 32 10 40 29 47 31 125 29
53 -1 84 -6 87 -14 3 -9 -14 -11 -69 -7 -96 6 -117 0 -173 -51 -26 -24 -54
-47 -62 -52 -9 -6 -2 3 15 18 l30 28 -42 -27 c-24 -14 -40 -31 -36 -37 4 -6 0
-8 -10 -4 -10 3 -17 2 -17 -3 0 -6 16 -8 38 -6 113 15 131 15 135 3 3 -9 7 -9
18 -1 17 14 154 -36 217 -79 53 -37 118 -56 189 -55 32 0 68 -2 79 -6 14 -4
40 6 84 35 91 58 103 77 103 163 0 39 -3 82 -7 96 -4 15 -4 20 1 13 6 -9 13
-1 22 25 7 20 25 52 39 71 14 19 19 31 11 27 -8 -4 -5 -1 5 8 10 8 23 13 29 9
6 -4 7 -1 2 7 -6 10 -4 12 9 7 23 -9 113 13 95 23 -16 8 -45 6 -71 -4 -9 -4
-27 -6 -40 -3 -21 4 -20 4 5 6 24 1 81 41 58 41 -5 0 -14 -6 -20 -14z m-128
-171 c-3 -9 -8 -14 -10 -11 -3 3 -2 9 2 15 9 16 15 13 8 -4z m-196 -37 c-3 -8
-6 -5 -6 6 -1 11 2 17 5 13 3 -3 4 -12 1 -19z m-267 -48 c21 -21 60 -89 60
-104 0 -6 -11 5 -25 24 -13 18 -22 36 -20 40 3 4 -7 16 -20 26 -14 10 -25 22
-25 26 0 13 9 9 30 -12z m220 -63 c0 -2 -15 -13 -32 -26 l-33 -22 28 25 c26
24 37 31 37 23z m-282 -54 c27 -13 44 -33 27 -33 -12 0 -77 30 -98 46 -22 16
-22 16 8 9 17 -3 45 -13 63 -22z m166 -38 c9 -14 15 -25 13 -25 -2 0 -14 11
-27 25 -13 14 -19 25 -13 25 6 0 18 -11 27 -25z m221 -65 c-3 -5 -12 -10 -18
-10 -7 0 -6 4 3 10 19 12 23 12 15 0z"/>
<path d="M1361 624 c0 -11 3 -14 6 -6 3 7 2 16 -1 19 -3 4 -6 -2 -5 -13z"/>
<path d="M1723 629 c-13 -6 -10 -8 14 -8 17 -1 34 3 37 7 6 10 -27 10 -51 1z"/>
<path d="M1326 559 c-11 -11 -15 -19 -9 -19 12 0 38 28 32 34 -2 2 -13 -5 -23
-15z"/>
<path d="M865 501 c-3 -5 -1 -12 5 -16 5 -3 10 1 10 9 0 18 -6 21 -15 7z"/>
<path d="M1940 455 c0 -8 5 -15 10 -15 6 0 10 7 10 15 0 8 -4 15 -10 15 -5 0
-10 -7 -10 -15z"/>
<path d="M180 449 c0 -5 5 -7 10 -4 6 3 10 8 10 11 0 2 -4 4 -10 4 -5 0 -10
-5 -10 -11z"/>
<path d="M220 410 c0 -5 4 -10 9 -10 5 0 18 -3 28 -7 16 -6 16 -5 4 10 -15 19
-41 23 -41 7z"/>
<path d="M1950 416 c0 -8 47 -70 90 -119 67 -77 68 -77 112 -77 l43 1 -40 14
c-22 8 -41 15 -42 15 -1 0 -3 10 -5 23 -2 12 -9 21 -16 19 -7 -1 -22 7 -34 18
-12 11 -26 20 -30 20 -5 0 -18 20 -29 45 -20 45 -33 61 -23 28 5 -15 3 -15
-10 1 -9 11 -16 16 -16 12z"/>
<path d="M292 338 c20 -37 18 -116 -3 -103 -5 4 -9 3 -9 -2 0 -4 16 -16 36
-26 33 -16 39 -16 107 0 40 9 74 20 77 24 3 5 17 12 30 18 19 7 7 8 -45 4 -38
-2 -72 -6 -73 -8 -2 -2 -16 1 -31 6 -26 9 -79 83 -73 102 1 4 -5 7 -13 7 -13
0 -14 -3 -3 -22z m64 -136 c-4 -3 -14 2 -24 12 -16 18 -16 18 6 6 13 -6 21
-14 18 -18z"/>
<path d="M2140 300 c0 -5 5 -10 10 -10 6 0 10 5 10 10 0 6 -4 10 -10 10 -5 0
-10 -4 -10 -10z"/>
</g>
</svg>
