<svg width="497" height="497" viewBox="0 0 497 497" fill="none" xmlns="http://www.w3.org/2000/svg">
<path opacity="0.3" d="M176.612 436.245L59.5518 368.653L212.197 280.529L329.246 348.11L176.612 436.245Z" fill="black"/>
<path d="M176.612 433.837L59.5518 366.245L212.197 278.11L329.246 345.702L176.612 433.837Z" fill="white"/>
<path d="M162.629 349.568V329.953H176.534L196.447 341.428L162.629 349.568Z" fill="#FBE979"/>
<path d="M196.447 341.429V357.686L176.545 369.172H148.393L162.629 349.568L196.447 341.429Z" fill="#EB5C44"/>
<path d="M162.63 349.568L148.393 369.172L128.502 357.686L128.491 341.428L148.393 329.953H162.63V349.568Z" fill="#FFC654"/>
<path d="M193.201 409.241L102.117 356.659L106.237 354.284L197.32 406.867L193.201 409.241Z" fill="#F4EFE9"/>
<path d="M184.056 414.542L92.9614 361.949L97.081 359.574L188.165 412.168L184.056 414.542Z" fill="#F4EFE9"/>
<path d="M137.304 398.119L83.8052 367.228L87.9248 364.854L141.424 395.745L137.304 398.119Z" fill="#F4EFE9"/>
<path d="M264.89 367.869L173.807 315.275L213.953 292.093L305.037 344.686L264.89 367.869Z" fill="#BAF3FF"/>
<path d="M219.685 299.758L214.196 296.588L212.595 296.919L211.048 297.814L210.474 298.742L215.963 301.911L217.554 301.569L219.111 300.685L219.685 299.758Z" fill="#FDB053"/>
<path d="M213.379 303.402L207.89 300.232L206.277 300.564L204.742 301.447L204.157 302.386L209.646 305.556L211.247 305.213L212.793 304.33L213.379 303.402Z" fill="#EB5C44"/>
<path d="M173.807 315.275L225.351 322.057L235.346 329.445L263.951 331.113L271.815 342.798L305.037 344.687L296.256 349.756L265.696 361.441L173.807 315.275Z" fill="#EB5C44"/>
<path d="M173.807 315.275L203.836 315.982L224.611 334.183L263.454 344.046L272.599 352.164L296.256 349.756L284.803 356.372L264.89 367.869L173.807 315.275Z" fill="#FDB053"/>
<path d="M173.807 315.275L192.571 322.587L204.157 322.046L235.026 342.964L262.957 354.284L284.803 356.372L264.89 367.869L173.807 315.275Z" fill="#FBE979"/>
<path d="M221.497 379.83L200.755 367.847L197.066 368.62L193.499 370.674L192.163 372.806L212.904 384.789L216.593 384.016L220.149 381.95L221.497 379.83Z" fill="#FDB053"/>
<path d="M236.042 371.425L215.312 359.453L211.612 360.226L208.055 362.281L206.708 364.412L227.449 376.384L231.138 375.611L234.695 373.557L236.042 371.425Z" fill="#FBE979"/>
<path d="M206.951 388.224L186.21 376.252L182.51 377.025L178.953 379.09L177.606 381.211L198.336 393.194L202.036 392.41L205.593 390.356L206.951 388.224Z" fill="#EB5C44"/>
<path opacity="0.3" d="M153.231 340.225L36.4136 272.777L188.739 184.83L305.556 252.278L153.231 340.225Z" fill="black"/>
<path d="M153.231 338.767L36.4136 271.33L188.739 183.383L305.556 250.82L153.231 338.767Z" fill="white"/>
<path d="M233.336 249.738L209.359 263.588L199.54 257.922V241.709L233.336 249.738Z" fill="#DDE65C"/>
<path d="M199.54 241.709L219.409 230.233H247.484L267.353 241.709L233.336 249.738L199.54 241.709Z" fill="#EB5C44"/>
<path d="M233.336 249.738L267.353 241.709V257.922L247.495 269.386H219.409L209.358 263.588L233.336 249.738Z" fill="#FFC654"/>
<path d="M195.398 259.49L183.194 252.443H180.941L179.34 253.36V254.674L191.544 261.721H193.808L195.398 260.793V259.49Z" fill="#DDE65C"/>
<path d="M188.882 263.256L176.667 256.21H174.414L172.812 257.138V258.441L185.017 265.487H187.281L188.871 264.56L188.882 263.256Z" fill="#FFC654"/>
<path d="M182.355 267.033L170.151 259.976L167.876 259.987L166.285 260.903V262.207L178.489 269.253H180.753L182.355 268.336V267.033Z" fill="#EB5C44"/>
<path d="M185.701 206.952L178.92 210.862V216.395L182.112 218.239L176.181 221.663L170.537 218.394V208.852L182.233 202.104L185.701 206.952Z" fill="#EB5C44"/>
<path d="M182.233 202.104H198.767L210.452 208.852L202.069 210.862L195.288 206.952H185.701L182.233 202.104Z" fill="#DDE65C"/>
<path d="M182.112 218.228L185.701 220.305H195.288L202.069 216.395V210.862L210.452 208.852V218.394L198.767 225.153H182.233L176.181 221.663L182.112 218.228Z" fill="#FFC654"/>
<path d="M197.364 211.978L193.344 209.658H187.656L183.636 211.978V215.269L187.656 217.588H193.344L197.364 215.269V211.978Z" fill="#FFC654"/>
<path d="M162 239.533V233.999L155.219 230.09H150.712V225.241H158.698L170.383 232V241.543L162 239.533Z" fill="#CCA7CF"/>
<path d="M170.383 241.532L158.698 248.28H142.164L145.643 243.443H155.23L162 239.533L170.383 241.532Z" fill="#DDE65C"/>
<path d="M150.723 230.079H145.643L138.862 233.989V239.533L145.643 243.443L142.164 248.28L130.479 241.532V231.99L142.164 225.23H150.723V230.079Z" fill="#389998"/>
<path d="M147.587 240.726H153.275L157.295 238.406V235.126L153.275 232.807H147.587L143.567 235.126V238.406L147.587 240.726Z" fill="#389998"/>
<path d="M230.011 279.469L200.666 262.538L183.757 272.29L213.102 289.233L230.011 279.469Z" fill="#CCA7CF"/>
<path d="M199.429 297.129L108.534 244.657L112.642 242.271L203.538 294.755L199.429 297.129Z" fill="#F4EFE9"/>
<path d="M190.296 302.409L99.3999 249.925L103.508 247.551L194.404 300.034L190.296 302.409Z" fill="#F4EFE9"/>
<path d="M143.655 286.03L90.2661 255.205L94.3746 252.83L147.763 283.655L143.655 286.03Z" fill="#F4EFE9"/>
<path d="M151.364 324.884L60.4683 272.401L84.3905 258.584L175.286 311.067L151.364 324.884Z" fill="#BAF3FF"/>
<path d="M91.1056 265.664L85.6275 262.494H84.6114L83.8936 262.914V263.499L89.3716 266.669H90.3877L91.1056 266.249V265.664Z" fill="#FBE979"/>
<path d="M88.1791 267.365L82.69 264.195H81.6739L80.9561 264.604V265.189L86.4451 268.359H87.4502L88.1791 267.95V267.365Z" fill="#FDB053"/>
<path d="M85.2411 269.055L79.752 265.885H78.736L78.0181 266.304V266.89L83.5072 270.049H84.5232L85.2411 269.64V269.055Z" fill="#EB5C44"/>
<path d="M60.4683 272.4L106.568 282.252L117.292 289.199L138.972 294.821L150.127 304.573L175.286 311.067L171.211 313.431L148.989 320.311L60.4683 272.4Z" fill="#EB5C44"/>
<path d="M60.4683 272.4L88.0241 274.499L111.626 291.01L144.583 304.197L155.02 311.542L171.211 313.431L165.887 316.501L145.886 320.4L60.4683 272.4Z" fill="#FDB053"/>
<path d="M60.4683 272.4L95.6448 282.915L103.464 292.336L128.104 301.657L140.507 310.703L165.887 316.501L151.364 324.884L60.4683 272.4Z" fill="#FBE979"/>
<path opacity="0.3" d="M250.985 212.827L233.667 202.832L156.025 247.661L157.615 248.6L153.728 250.831L149.144 258.176L149.277 258.253L148.04 258.982L146.891 259.634L143.423 262.461L142.054 265.211H142.065H142.087L146.825 264.427L151.696 262.373L152.833 261.699L154.048 260.992L154.39 261.202L167.103 258.54L170.968 256.309L173.321 257.668L250.985 212.827Z" fill="black"/>
<path d="M251.184 204.477L248.544 207.073L247.473 204.212L243.972 199.75L248.047 199.021L251.184 204.477Z" fill="#AB281F"/>
<path d="M251.183 209.613L249.085 210.806L247.583 207.073L249.085 205.681L251.183 204.478V209.613Z" fill="#8A1C14"/>
<path d="M245.949 200.236L232.596 192.516L229.448 194.349V199.496L232.596 204.952L245.949 212.65L249.096 210.816V205.692L245.949 200.236Z" fill="#C84030"/>
<path d="M245.948 200.236L232.596 192.516L234.683 191.323L248.047 199.021L245.948 200.236Z" fill="#FA5C52"/>
<path d="M173.353 255.524L159.515 247.528L156.014 241.476V235.788L159.515 233.756L173.353 241.741L176.843 247.804V253.492L173.353 255.524Z" fill="#685750"/>
<path d="M245.882 199.861L222.104 217.996L173.353 241.752L159.515 233.756L232.044 191.887L245.882 199.861Z" fill="#836E69"/>
<path d="M239.278 200.457L217.222 213.181L214.107 211.391L236.141 198.657L239.278 200.457Z" fill="#A39685"/>
<path d="M249.372 211.623L176.843 253.492V247.804L218.768 220.039L249.372 205.924V211.623Z" fill="#362C29"/>
<path d="M249.372 205.924L176.844 247.804L173.354 241.752L245.882 199.86L249.372 205.924Z" fill="#685750"/>
<path d="M176.247 247.727L173.619 250.333L172.559 247.473L169.046 243.011L173.1 242.293L176.247 247.727Z" fill="#AB281F"/>
<path d="M176.247 252.885L174.171 254.089L172.647 250.334L174.171 248.942L176.247 247.728V252.885Z" fill="#8A1C14"/>
<path d="M171.012 243.486L157.671 235.788L154.523 237.599V242.735L157.671 248.191L171.012 255.911L174.171 254.089V248.953L171.012 243.486Z" fill="#C84030"/>
<path d="M171.012 243.486L157.66 235.788L159.747 234.573L173.1 242.293L171.012 243.486Z" fill="#FA5C52"/>
<path d="M171.012 252.267L167.103 254.531L163.999 248.423L171.012 247.131V252.267Z" fill="#8A1C14"/>
<path d="M154.39 257.181L149.144 254.155V249.02L157.803 249.98L154.39 257.181Z" fill="#C84030"/>
<path d="M167.102 254.531L154.39 257.182V252.024L159.515 247.938L167.102 249.395V254.531Z" fill="#AB281F"/>
<path d="M157.648 239.411L153.727 241.675L149.144 249.02L154.39 252.024L167.102 249.395L171.012 247.131L157.648 239.411Z" fill="#FA5C52"/>
<path d="M147.929 252.466L144.152 255.592L142.054 259.06L149.553 252.4L149.078 251.781L147.929 252.466Z" fill="#C84030"/>
<path d="M142.054 259.059L146.107 258.96L150.702 257.226L151.861 256.574L151.563 255.856L142.054 259.059Z" fill="#C84030"/>
<path d="M149.078 251.781L144.969 255.138L142.054 259.059L145.908 255.934L147.112 255.702L148.426 255.017L149.597 253.857L151.21 253.603L152.59 251.626L150.956 250.688L149.078 251.781Z" fill="#FA7871"/>
<path d="M150.69 252.719L146.096 255.779L142.054 259.059L145.257 258.33L146.571 257.413L147.731 257.159L149.564 256.607L150.481 255.856L151.839 255.105L153.728 253.603L152.59 251.626L150.69 252.719Z" fill="#FA5C52"/>
<path d="M142.054 259.059L146.902 258.485L151.861 256.574L153.728 255.47V253.604L151.839 254.697L146.902 257.16L142.054 259.059Z" fill="#C84030"/>
<path opacity="0.3" d="M116.972 228.488L87.9692 245.243L105.276 255.216L134.301 238.483L116.972 228.488Z" fill="black"/>
<path d="M106.8 252.311L92.9612 244.337L89.4712 238.295V232.585L92.9612 230.575L106.8 238.549L110.29 244.602V250.323L106.8 252.311Z" fill="#685750"/>
<path d="M129.441 225.484L118.01 234.883L106.8 238.539L92.9502 230.565L115.591 217.499L129.441 225.484Z" fill="#836E69"/>
<path d="M132.92 237.235L110.29 250.312V244.591L121.92 235.777L132.92 231.536V237.235Z" fill="#362C29"/>
<path d="M132.92 231.537L110.29 244.591L106.8 238.539L129.441 225.484L132.92 231.537Z" fill="#685750"/>
<path d="M109.705 244.547L107.065 247.131L106.005 244.271L102.493 239.809L106.546 239.091L109.705 244.547Z" fill="#AB281F"/>
<path d="M109.704 249.671L107.617 250.875L106.104 247.131L107.617 245.74L109.704 244.547V249.671Z" fill="#8A1C14"/>
<path d="M104.469 240.284L91.1057 232.575L87.958 234.386V239.544L91.1057 244.989L104.469 252.698L107.617 250.876V245.74L104.469 240.284Z" fill="#C84030"/>
<path d="M104.469 240.284L91.1055 232.575L93.2039 231.371L106.546 239.091L104.469 240.284Z" fill="#FA5C52"/>
<path opacity="0.3" d="M171.244 400.218L254.972 448.482L256.629 449.443L256.496 449.686L259.5 451.42L261.025 452.292L260.24 453.993L257.601 455.517L254.652 455.981L253.117 455.097L250.135 453.374L249.693 453.441L248.036 452.491L164.319 404.227L154.876 394.839L171.244 400.218Z" fill="black"/>
<path d="M158.632 393.204L159.327 392.387L154.876 391.228L158.632 393.204Z" fill="#836E69"/>
<path d="M158.124 394.464L158.499 393.459L154.876 391.228L158.124 394.464Z" fill="#403531"/>
<path d="M158.124 393.646H158.543L158.632 392.796L154.876 391.228L158.124 393.646Z" fill="#685750"/>
<path d="M165.744 402.062L169.632 399.113L169.742 395.126L165.579 394.419L158.632 392.796L158.124 393.646L163.37 398.34L165.744 402.062Z" fill="#EFC58B"/>
<path d="M165.744 402.062V399.356L158.124 393.646V394.464L165.744 402.062Z" fill="#C79D5C"/>
<path d="M167.401 396.473L169.742 395.126L159.327 392.387L158.631 392.795L167.401 396.473Z" fill="#F7E6BB"/>
<path d="M239.587 441.988L241.233 439.116L243.586 437.758L245.242 438.719V441.425L243.586 444.296L241.233 445.655L239.587 444.694V441.988Z" fill="#785B56"/>
<path d="M241.233 439.116L243.585 437.758L169.742 395.126L167.401 396.473L240.924 439.149L241.233 439.116Z" fill="#8CCCCB"/>
<path d="M239.587 441.988L241.233 439.116L167.401 396.474L165.744 399.356L239.289 442.109L239.587 441.988Z" fill="#389998"/>
<path d="M239.587 444.694V441.988L165.744 399.356V402.062L239.587 444.694Z" fill="#3E6669"/>
<path d="M249.395 447.654L251.052 444.782L253.404 443.424L255.061 444.385V447.102L253.404 449.962L251.052 451.31L249.395 450.36V447.654Z" fill="#D8D1C7"/>
<path d="M251.051 444.782L253.404 443.424L243.585 437.758L241.233 439.105L250.742 444.804L251.051 444.782Z" fill="#E6E1DD"/>
<path d="M249.395 447.654L251.052 444.782L241.233 439.105L239.587 441.988L249.097 447.775L249.395 447.654Z" fill="#D1D1D1"/>
<path d="M249.395 450.36V447.654L239.587 441.988V444.694L249.395 450.36Z" fill="#A39C95"/>
<path d="M254.354 450.37L255.889 447.72L258.054 446.472L259.578 447.355V449.851L258.054 452.491L255.889 453.739L254.354 452.855V450.37Z" fill="#C26A5E"/>
<path d="M255.889 447.719L258.053 446.471L253.525 443.876L251.372 445.124L255.602 447.753L255.889 447.719Z" fill="#FCA48F"/>
<path d="M254.354 450.37L255.889 447.719L251.372 445.124L249.848 447.775L254.089 450.492L254.354 450.37Z" fill="#D57A70"/>
<path d="M254.354 452.855V450.37L249.848 447.774V450.259L254.354 452.855Z" fill="#A6495D"/>
<path d="M232.806 434.246L235.137 432.887L231.536 430.8L229.184 432.147L232.497 434.279L232.806 434.246Z" fill="#FDD293"/>
<path d="M231.139 437.117L232.806 434.246L229.184 432.147L227.538 435.03L230.851 437.25L231.139 437.117Z" fill="#FDB053"/>
<path d="M231.139 439.824V437.118L227.538 435.03V437.736L231.139 439.824Z" fill="#FF8E1C"/>
<path opacity="0.3" d="M326.761 387.374L310.901 378.218H302.143L295.947 381.796V386.843L311.818 395.999H320.565L326.761 392.432V387.374Z" fill="black"/>
<path d="M310.901 372.331H302.198L296.068 375.887V380.902L310.901 372.331Z" fill="#F7EDD4"/>
<path d="M326.639 392.045L320.499 395.59L319.46 389.229L324.132 387.197L326.639 386.435V392.045Z" fill="#C7AE87"/>
<path d="M311.807 395.59L296.068 386.512V380.901L307.875 385.849L311.807 389.98V395.59Z" fill="#C84030"/>
<path d="M320.499 395.59H311.807V389.98L317.263 388.19L320.499 389.98V395.59Z" fill="#EFCFA3"/>
<path d="M311.807 389.98H320.499L326.639 386.435V381.421L311.807 389.98Z" fill="#F7EDD4"/>
<path d="M311.807 389.98L296.068 380.902L310.901 372.331L326.639 381.421L311.807 389.98Z" fill="#FA5C52"/>
<path d="M307.731 384.115L301.425 380.471H300.674L300.133 380.769V381.222L306.45 384.855H307.201L307.731 384.557V384.115Z" fill="#836E69"/>
<path opacity="0.3" d="M186.883 318.345L223.816 297.029L287.73 333.918L250.786 355.245L186.883 318.345Z" fill="black"/>
<path d="M221.795 277.524V298.189L223.761 299.326V278.651L223.639 277.867L221.795 277.524Z" fill="#685750"/>
<path d="M223.761 278.651V299.326L225.782 298.155V277.491L224.313 277.513L223.761 278.651Z" fill="#403531"/>
<path d="M221.795 277.524L223.816 276.354L225.782 277.491L223.761 278.651L221.795 277.524Z" fill="#403531"/>
<path d="M186.883 297.681V318.356L188.849 319.482V298.807L188.728 298.023L186.883 297.681Z" fill="#685750"/>
<path d="M188.849 298.807V319.482L190.87 318.312V297.647L189.401 297.67L188.849 298.807Z" fill="#403531"/>
<path d="M186.883 297.68L188.904 296.51L190.87 297.647L188.849 298.807L186.883 297.68Z" fill="#403531"/>
<path d="M248.832 333.431V354.106L250.786 355.243V334.568L250.676 333.773L248.832 333.431Z" fill="#685750"/>
<path d="M250.787 334.569V355.244L252.808 354.074V333.398L251.339 333.432L250.787 334.569Z" fill="#403531"/>
<path d="M248.832 333.431L250.842 332.271L252.808 333.398L250.786 334.569L248.832 333.431Z" fill="#403531"/>
<path d="M283.743 313.275V333.951L285.698 335.088V314.413L285.588 313.618L283.743 313.275Z" fill="#685750"/>
<path d="M285.698 314.413V335.088L287.73 333.917V313.242L286.262 313.264L285.698 314.413Z" fill="#403531"/>
<path d="M283.743 313.275L285.753 312.104L287.73 313.242L285.698 314.413L283.743 313.275Z" fill="#403531"/>
<path d="M186.883 294.665V297.68L250.786 334.569V331.565L250.532 329.831L186.883 294.665Z" fill="#685750"/>
<path d="M250.787 331.565V334.569L287.73 313.242V310.238L254.995 319.482L250.787 331.565Z" fill="#403531"/>
<path d="M186.883 294.665L223.816 273.35L287.73 310.238L250.786 331.565L186.883 294.665Z" fill="#836E69"/>
<path opacity="0.3" d="M218.515 302.606L216.273 302.076L214.042 302.606L213.147 303.854L214.042 305.191L216.284 305.732L218.526 305.191L219.398 303.832L218.515 302.606Z" fill="black"/>
<path d="M214.826 293.363L214.307 293.793L213.489 294.92L214.307 295.03L215.124 293.639L215.378 293.396L215.455 293.175L214.826 293.363Z" fill="#898C55"/>
<path d="M215.499 293.716L215.124 293.639L214.229 294.191L213.489 294.92L213.312 295.936V296.797L213.765 297.825L213.721 299.846L213.312 301.845V303.777L214.229 305.048L215.312 297.482L215.223 295.837L215.234 294.809L215.466 294.103L215.499 293.716Z" fill="#C3C270"/>
<path d="M216.99 296.366L216.681 295.074L216.272 294.312L216.029 293.76L215.466 294.102L214.826 295.03L214.307 296.046L214.185 297.139L214.229 305.047L216.272 305.633L217.057 302.805L216.99 296.366Z" fill="#898C55"/>
<path d="M217.775 293.672L217.742 294.335L217.708 295.03L217.775 293.672Z" fill="#66BBCC"/>
<path d="M219.045 294.92L218.227 293.793L217.708 293.363L217.079 293.175L217.057 293.318L217.344 293.661L218.106 294.677L219.045 294.92Z" fill="#7C8552"/>
<path d="M219.045 294.92L218.305 294.191L217.41 293.639L217.101 293.738L217.079 294.103L217.189 296.256L217.255 302.684L218.36 305.125L219.232 303.777V295.936L219.045 294.92Z" fill="#6A7147"/>
<path d="M218.238 296.046L217.708 295.03L217.079 294.102L216.549 294.014L216.272 294.312V305.632L218.36 305.124V297.139L218.238 296.046Z" fill="#7C8552"/>
<path d="M217.079 293.174L216.273 292.976L215.455 293.174L215.124 293.638L215.466 294.102L216.273 294.312L217.079 294.102L217.41 293.638L217.079 293.174Z" fill="#898C55"/>
<path d="M214.185 298.012L213.312 296.797V301.844L214.207 303.103L214.472 300.85L214.185 298.012Z" fill="#E3BD5E"/>
<path d="M218.36 298.012L216.272 298.509L215.742 299.956L216.272 303.7L218.36 303.203V298.012Z" fill="#CC934C"/>
<path d="M216.272 298.509L214.185 298.012L214.207 303.103L216.272 303.7V298.509Z" fill="#D6A950"/>
<path d="M216.273 289.165L215.455 288.978L215.29 289.276L215.455 294.102L216.273 294.312L216.604 293.539L216.273 289.165Z" fill="#898C55"/>
<path d="M216.272 289.165L217.079 288.978L217.244 289.276L217.079 294.102L216.272 294.312V289.165Z" fill="#7C8552"/>
<path d="M217.079 288.038L216.262 287.851L215.455 288.038L215.124 288.502L215.455 288.977L216.273 289.165L217.079 288.977L217.41 288.502L217.079 288.038Z" fill="#E8F3FF"/>
<path d="M217.079 288.977L217.41 288.502V293.638L217.079 294.101V288.977Z" fill="#6A7147"/>
<path d="M215.455 288.977L215.124 288.502V293.638L215.455 294.101V288.977Z" fill="#C3C270"/>
<path opacity="0.3" d="M217.079 289.021L216.273 289.209L215.455 289.021L215.124 288.558V288.944L215.455 289.408L216.273 289.607L217.079 289.408L217.41 288.944V288.558L217.079 289.021Z" fill="black"/>
<path d="M216.273 288.293L215.378 288.083L215.202 288.414L215.378 289.088L216.273 289.298L216.637 288.447L216.273 288.293Z" fill="#898C55"/>
<path d="M216.273 288.293L217.156 288.083L217.344 288.414L217.156 289.088L216.273 289.298V288.293Z" fill="#7C8552"/>
<path d="M217.156 287.067L216.262 286.846L215.378 287.067L215.014 287.575L215.378 288.083L216.273 288.293L217.156 288.083L217.521 287.575L217.156 287.067Z" fill="#C3C270"/>
<path d="M217.035 287.133L216.273 286.945L215.5 287.133L215.19 287.575L215.5 288.017L216.273 288.204L217.035 288.017L217.355 287.575L217.035 287.133Z" fill="#6A7147"/>
<path d="M217.156 288.082L217.521 287.574V288.568L217.156 289.087V288.082Z" fill="#6A7147"/>
<path d="M215.378 288.082L215.014 287.574V288.568L215.378 289.087V288.082Z" fill="#C3C270"/>
<path opacity="0.3" d="M226.003 301.105L223.772 300.563L221.53 301.105L220.635 302.342L221.53 303.689L223.772 304.219L226.014 303.689L226.886 302.32L226.003 301.105Z" fill="black"/>
<path d="M222.314 289.685L221.795 290.116L220.989 291.242L221.795 291.353L222.612 289.972L222.877 289.729L222.955 289.497L222.314 289.685Z" fill="#944E39"/>
<path d="M222.999 290.049L222.612 289.972L221.717 290.513L220.989 291.242L220.801 292.258V293.119L221.265 294.146L221.209 296.157L220.801 300.331V302.264L221.717 303.534L222.8 293.804L222.723 292.147V291.12L222.954 290.425L222.999 290.049Z" fill="#D18067"/>
<path d="M224.479 292.689L224.18 291.396L223.761 290.623L223.529 290.082L222.954 290.424L222.325 291.352L221.806 292.379L221.673 293.462L221.718 303.534L223.761 304.12L224.545 301.292L224.479 292.689Z" fill="#944E39"/>
<path d="M225.263 290.005L225.241 290.657L225.208 291.352L225.263 290.005Z" fill="#66BBCC"/>
<path d="M226.533 291.242L225.727 290.116L225.208 289.685L224.578 289.497L224.545 289.641L224.843 289.983L225.605 290.999L226.533 291.242Z" fill="#853E2A"/>
<path d="M226.533 291.242L225.804 290.513L224.909 289.972L224.6 290.049L224.578 290.425L224.689 292.578L224.755 301.171L225.859 303.612L226.721 302.264V292.258L226.533 291.242Z" fill="#693121"/>
<path d="M225.727 292.379L225.208 291.352L224.578 290.424L224.037 290.336L223.761 290.623V304.119L225.859 303.611V293.462L225.727 292.379Z" fill="#853E2A"/>
<path d="M224.567 289.497L223.761 289.298L222.955 289.497L222.612 289.972L222.955 290.424L223.761 290.623L224.578 290.424L224.91 289.972L224.567 289.497Z" fill="#853E2A"/>
<path d="M221.673 294.334L220.801 293.119V300.331L221.695 301.601L221.971 299.348L221.673 294.334Z" fill="white"/>
<path d="M225.859 294.334L223.761 294.831L223.23 298.454L223.761 302.187L225.859 301.69V294.334Z" fill="#D1D1D1"/>
<path d="M223.761 294.831L221.673 294.334L221.695 301.601L223.761 302.187V294.831Z" fill="#F4EFE9"/>
<path d="M223.761 285.488L222.955 285.3L222.778 285.598L222.955 290.424L223.761 290.623L224.103 289.85L223.761 285.488Z" fill="#944E39"/>
<path d="M223.761 285.488L224.567 285.3L224.733 285.598L224.567 290.424L223.761 290.623V285.488Z" fill="#853E2A"/>
<path d="M224.567 284.361L223.761 284.162L222.955 284.361L222.612 284.825L222.955 285.3L223.761 285.487L224.567 285.3L224.91 284.825L224.567 284.361Z" fill="#E8F3FF"/>
<path d="M224.567 285.3L224.91 284.825V289.972L224.567 290.425V285.3Z" fill="#693121"/>
<path d="M222.955 285.3L222.612 284.825V289.972L222.955 290.425V285.3Z" fill="#D18067"/>
<path opacity="0.3" d="M224.567 285.344L223.761 285.543L222.955 285.344L222.612 284.869V285.267L222.955 285.731L223.761 285.929L224.567 285.731L224.91 285.267V284.869L224.567 285.344Z" fill="black"/>
<path d="M223.761 284.615L222.878 284.405L222.69 284.737L222.878 285.41L223.761 285.62L224.126 284.781L223.761 284.615Z" fill="#944E39"/>
<path d="M223.761 284.615L224.645 284.405L224.833 284.737L224.645 285.41L223.761 285.62V284.615Z" fill="#853E2A"/>
<path d="M224.645 283.378L223.761 283.168L222.877 283.378L222.502 283.897L222.877 284.405L223.761 284.615L224.645 284.405L225.02 283.897L224.645 283.378Z" fill="#D18067"/>
<path d="M224.523 283.444L223.761 283.268L222.988 283.455L222.679 283.897L222.999 284.328L223.761 284.516L224.534 284.328L224.843 283.897L224.523 283.444Z" fill="#693121"/>
<path d="M224.645 284.405L225.02 283.896V284.902L224.645 285.41V284.405Z" fill="#693121"/>
<path d="M222.877 284.405L222.502 283.896V284.902L222.877 285.41V284.405Z" fill="#D18067"/>
<path opacity="0.3" d="M207.547 287.818L205.316 287.288L203.063 287.818L202.18 289.055L203.074 290.403L205.316 290.944L207.558 290.403L208.431 289.033L207.547 287.818Z" fill="black"/>
<path d="M203.859 276.399L203.339 276.829L202.533 277.956L203.339 278.077L204.157 276.686L204.422 276.443L204.488 276.211L203.859 276.399Z" fill="#944E39"/>
<path d="M204.532 276.763L204.157 276.686L203.262 277.227L202.533 277.956L202.345 278.972V279.844L202.798 280.86L202.754 282.881L202.345 287.045V288.989L203.262 290.248L204.344 280.518L204.267 278.872V277.845L204.488 277.149L204.532 276.763Z" fill="#D18067"/>
<path d="M206.023 279.413L205.714 278.11L205.305 277.337L205.073 276.796L204.488 277.149L203.869 278.077L203.35 279.093L203.218 280.175L203.262 290.248L205.305 290.844L206.089 288.017L206.023 279.413Z" fill="#944E39"/>
<path d="M206.807 276.719L206.785 277.37L206.752 278.066L206.807 276.719Z" fill="#66BBCC"/>
<path d="M208.077 277.956L207.26 276.829L206.752 276.399L206.111 276.211L206.089 276.355L206.388 276.697L207.15 277.724L208.077 277.956Z" fill="#853E2A"/>
<path d="M208.077 277.956L207.348 277.227L206.443 276.686L206.144 276.774L206.111 277.149L206.233 279.303L206.288 287.885L207.392 290.336L208.265 288.989V278.972L208.077 277.956Z" fill="#693121"/>
<path d="M207.271 279.093L206.752 278.066L206.111 277.149L205.581 277.05L205.305 277.337V290.844L207.393 290.336V280.175L207.271 279.093Z" fill="#853E2A"/>
<path d="M206.112 276.211L205.305 276.012L204.488 276.211L204.157 276.685L204.488 277.149L205.305 277.337L206.112 277.149L206.443 276.685L206.112 276.211Z" fill="#853E2A"/>
<path d="M203.218 281.048L202.345 279.844V287.045L203.24 288.315L203.218 281.048Z" fill="white"/>
<path d="M205.305 272.212L204.488 272.014L204.322 272.312L204.488 277.149L205.305 277.337L205.637 276.575L205.305 272.212Z" fill="#944E39"/>
<path d="M205.305 272.212L206.111 272.014L206.277 272.312L206.111 277.149L205.305 277.337V272.212Z" fill="#853E2A"/>
<path d="M206.112 271.086L205.294 270.887L204.488 271.086L204.157 271.549L204.488 272.013L205.305 272.212L206.112 272.013L206.443 271.538L206.112 271.086Z" fill="#E8F3FF"/>
<path d="M206.112 272.014L206.443 271.55V276.685L206.112 277.149V272.014Z" fill="#693121"/>
<path d="M204.488 272.014L204.157 271.55V276.685L204.488 277.149V272.014Z" fill="#D18067"/>
<path opacity="0.3" d="M206.112 272.069L205.305 272.256L204.488 272.069L204.157 271.594V271.991L204.488 272.455L205.305 272.643L206.112 272.455L206.443 271.991V271.594L206.112 272.069Z" fill="black"/>
<path d="M205.306 271.34L204.422 271.119L204.234 271.45L204.422 272.135L205.306 272.334L205.67 271.495L205.306 271.34Z" fill="#944E39"/>
<path d="M205.306 271.34L206.189 271.119L206.377 271.45L206.189 272.135L205.306 272.334V271.34Z" fill="#853E2A"/>
<path d="M206.178 270.092L205.294 269.882L204.422 270.103L204.046 270.622L204.422 271.119L205.305 271.34L206.189 271.119L206.553 270.622L206.178 270.092Z" fill="#D18067"/>
<path d="M206.068 270.169L205.305 269.981L204.532 270.169L204.223 270.622L204.532 271.053L205.305 271.241L206.079 271.053L206.388 270.622L206.068 270.169Z" fill="#693121"/>
<path d="M206.189 271.119L206.553 270.622V271.616L206.189 272.135V271.119Z" fill="#693121"/>
<path d="M204.422 271.119L204.046 270.622V271.616L204.422 272.135V271.119Z" fill="#D18067"/>
<path opacity="0.3" d="M228.786 310.537L226.544 310.007L224.302 310.537L223.418 311.785L224.302 313.132L226.544 313.663L228.786 313.132L229.659 311.763L228.786 310.537Z" fill="black"/>
<path d="M225.097 301.293L224.578 301.713L223.761 302.85L224.578 302.961L225.395 301.569L225.649 301.326L225.727 301.105L225.097 301.293Z" fill="#898C55"/>
<path d="M225.771 301.658L225.396 301.569L224.501 302.122L223.761 302.85L223.573 303.867V304.728L224.037 305.755L223.993 307.765L223.573 309.775V311.708L224.501 312.978L225.583 305.413L225.495 303.756V302.729L225.727 302.033L225.771 301.658Z" fill="#C3C270"/>
<path d="M227.262 304.308L226.953 303.005L226.544 302.232L226.301 301.69L225.727 302.033L225.097 302.961L224.578 303.988L224.457 305.07L224.501 312.978L226.544 313.563L227.328 310.736L227.262 304.308Z" fill="#898C55"/>
<path d="M228.046 301.613L228.013 302.265L227.98 302.95L228.046 301.613Z" fill="#66BBCC"/>
<path d="M229.316 302.85L228.499 301.713L227.98 301.293L227.35 301.105L227.328 301.249L227.615 301.58L228.377 302.607L229.316 302.85Z" fill="#7C8552"/>
<path d="M229.316 302.85L228.576 302.122L227.681 301.569L227.372 301.669L227.35 302.033L227.461 304.187L227.527 310.604L228.631 313.056L229.504 311.708V303.867L229.316 302.85Z" fill="#6A7147"/>
<path d="M228.499 303.977L227.98 302.949L227.35 302.033L226.82 301.944L226.544 302.231V313.563L228.631 313.055V305.07L228.499 303.977Z" fill="#7C8552"/>
<path d="M227.35 301.105L226.533 300.906L225.727 301.105L225.396 301.569L225.727 302.033L226.544 302.232L227.35 302.033L227.682 301.569L227.35 301.105Z" fill="#898C55"/>
<path d="M224.457 305.942L223.573 304.728V309.775L224.479 311.034L224.744 308.792L224.457 305.942Z" fill="#FA5C52"/>
<path d="M228.632 305.932L226.544 306.44L226.014 307.898L226.544 311.631L228.632 311.123V305.932Z" fill="#AB281F"/>
<path d="M226.544 306.439L224.457 305.942L224.479 311.034L226.544 311.63V306.439Z" fill="#C84030"/>
<path d="M226.533 297.096L225.727 296.908L225.561 297.195L225.727 302.033L226.533 302.232L226.875 301.459L226.533 297.096Z" fill="#898C55"/>
<path d="M226.533 297.096L227.35 296.908L227.516 297.195L227.35 302.033L226.533 302.232V297.096Z" fill="#7C8552"/>
<path d="M227.35 295.969L226.533 295.781L225.727 295.969L225.396 296.433L225.727 296.908L226.533 297.096L227.35 296.908L227.682 296.433L227.35 295.969Z" fill="#E8F3FF"/>
<path d="M227.351 296.908L227.682 296.433V301.568L227.351 302.032V296.908Z" fill="#6A7147"/>
<path d="M225.727 296.908L225.396 296.433V301.568L225.727 302.032V296.908Z" fill="#C3C270"/>
<path opacity="0.3" d="M227.35 296.952L226.533 297.14L225.727 296.952L225.396 296.488V296.875L225.727 297.339L226.533 297.537L227.35 297.339L227.682 296.875V296.488L227.35 296.952Z" fill="black"/>
<path d="M226.533 296.224L225.65 296.014L225.462 296.345L225.65 297.019L226.533 297.229L226.909 296.378L226.533 296.224Z" fill="#898C55"/>
<path d="M226.533 296.224L227.428 296.014L227.616 296.345L227.428 297.019L226.533 297.229V296.224Z" fill="#7C8552"/>
<path d="M227.428 294.986L226.533 294.776L225.65 294.997L225.285 295.494L225.65 296.013L226.533 296.223L227.428 296.013L227.792 295.494L227.428 294.986Z" fill="#C3C270"/>
<path d="M227.306 295.063L226.533 294.887L225.771 295.063L225.451 295.494L225.771 295.947L226.544 296.135L227.306 295.947L227.615 295.494L227.306 295.063Z" fill="#6A7147"/>
<path d="M227.428 296.013L227.792 295.494V296.51L227.428 297.018V296.013Z" fill="#6A7147"/>
<path d="M225.65 296.013L225.285 295.494V296.51L225.65 297.018V296.013Z" fill="#C3C270"/>
<path opacity="0.3" d="M103.586 332.272H93.5358L86.2686 328.086V321.879L93.5358 317.693H103.586L110.865 321.879V328.086L103.586 332.272Z" fill="black"/>
<path d="M103.465 330.56H93.6571L86.7212 326.551V320.885L93.6571 316.887H103.465L110.412 320.885V326.551L103.465 330.56Z" fill="#574943"/>
<path d="M93.6571 331.808L98.5608 331.024L93.6571 330.56L86.7212 326.551V327.81L93.6571 331.808Z" fill="#362C29"/>
<path d="M110.412 327.81V326.551L103.465 330.56L98.561 331.024L103.465 331.808L110.412 327.81Z" fill="#0A0808"/>
<path d="M103.465 330.56H93.6572V331.819H103.465V330.56Z" fill="#211A1A"/>
<path d="M99.4114 323.226H97.7216L96.5288 322.542V321.559L97.7216 320.874H99.4114L100.604 321.559V322.542L99.4114 323.226Z" fill="#574943"/>
<path d="M97.7216 324.353L98.561 324.21L97.7216 323.227L96.5288 322.542V323.657L97.7216 324.353Z" fill="#362C29"/>
<path d="M100.604 323.657V322.542L99.4115 323.227L98.561 324.21L99.4115 324.353L100.604 323.657Z" fill="#0A0808"/>
<path d="M99.4115 323.227H97.7217V324.353H99.4115V323.227Z" fill="#211A1A"/>
<path d="M98.9586 238.67H98.1634L97.6001 238.339V237.875L98.1634 237.555H98.9586L99.5218 237.875V238.339L98.9586 238.67Z" fill="#574943"/>
<path d="M98.1634 322.564L98.561 321.846L98.1634 238.67L97.6001 238.339V322.244L98.1634 322.564Z" fill="#362C29"/>
<path d="M99.5219 322.244V238.339L98.9586 238.67L98.561 321.846L98.9586 322.564L99.5219 322.244Z" fill="#0A0808"/>
<path d="M98.9588 238.67H98.1636V322.575H98.9588V238.67Z" fill="#211A1A"/>
<path d="M95.0375 216.946L89.968 219.608L87.0854 289.409L96.5616 285.212L95.0375 216.946Z" fill="#D1D1D1"/>
<path d="M102.128 216.946L107.186 219.608L110.08 289.409L100.604 285.212L102.128 216.946Z" fill="#D1D1D1"/>
<path d="M102.128 216.946L100.847 216.747H96.2304L95.0376 216.946L92.895 289.408H104.26L102.128 216.946Z" fill="#E0DEDC"/>
<path d="M99.0027 236.163L99.588 235.821V235.335L99.0027 234.992H98.1633L97.5669 235.335V235.821L98.1633 236.163H99.0027Z" fill="#B5A794"/>
<path d="M98.1633 236.163L97.5669 235.82L97.9314 236.858L98.3069 237.079L98.2075 236.229L98.1633 236.163Z" fill="#836E69"/>
<path d="M99.0025 236.163H98.1631L98.3067 237.08H98.8478L99.0687 236.207L99.0025 236.163Z" fill="#685750"/>
<path d="M99.5881 235.82L99.0028 236.163L98.8481 237.079L99.2347 236.858L99.5881 235.82Z" fill="#403531"/>
<path d="M99.2129 235.931L100.107 235.412V234.672L99.2129 234.153H97.9428L97.0371 234.672V235.412L97.9428 235.931H99.2129Z" fill="#B5A794"/>
<path d="M97.9429 235.931L97.0483 235.412V235.986L97.9429 236.506L98.0202 236.031L97.9429 235.931Z" fill="#A39685"/>
<path d="M99.213 235.932H97.9429V236.506H99.213L99.3234 236.009L99.213 235.932Z" fill="#736656"/>
<path d="M100.119 235.412L99.2129 235.931V236.506L100.119 235.986V235.412Z" fill="#5E4439"/>
<path d="M99.3011 235.578L100.328 234.981V234.142L99.3011 233.557H97.8543L96.8271 234.142V234.981L97.8543 235.578H99.3011Z" fill="#B5A794"/>
<path d="M97.8543 235.578L96.8271 234.992V235.655L97.8543 236.24L97.9426 235.699L97.8543 235.578Z" fill="#A39685"/>
<path d="M99.3013 235.578H97.8545V236.241H99.3013L99.4228 235.666L99.3013 235.578Z" fill="#736656"/>
<path d="M100.328 234.992L99.3013 235.578V236.24L100.328 235.655V234.992Z" fill="#5E4439"/>
<path d="M99.2129 234.793L100.107 234.274V233.545L99.2129 233.026H97.9428L97.0371 233.545V234.274L97.9428 234.793H99.2129Z" fill="#B5A794"/>
<path d="M97.9429 234.794L97.0483 234.274V234.86L97.9429 235.379L98.0202 234.893L97.9429 234.794Z" fill="#A39685"/>
<path d="M99.213 234.794H97.9429V235.379H99.213L99.3234 234.871L99.213 234.794Z" fill="#736656"/>
<path d="M100.119 234.274L99.2129 234.794V235.379L100.119 234.86V234.274Z" fill="#5E4439"/>
<path d="M99.3011 234.451L100.328 233.855V233.015L99.3011 232.419H97.8543L96.8271 233.015V233.855L97.8543 234.451H99.3011Z" fill="#B5A794"/>
<path d="M97.8543 234.451L96.8271 233.854V234.517L97.8543 235.114L97.9426 234.561L97.8543 234.451Z" fill="#A39685"/>
<path d="M99.3013 234.451H97.8545V235.114L99.3013 235.103L99.4228 234.528L99.3013 234.451Z" fill="#736656"/>
<path d="M100.328 233.854L99.3013 234.451V235.103L100.328 234.517V233.854Z" fill="#5E4439"/>
<path d="M99.2129 233.689L100.107 233.17V232.441L99.2129 231.922H97.9428L97.0371 232.441V233.17L97.9428 233.689H99.2129Z" fill="#B5A794"/>
<path d="M97.9429 233.689L97.0483 233.17V233.744L97.9429 234.263L98.0202 233.788L97.9429 233.689Z" fill="#A39685"/>
<path d="M99.213 233.689H97.9429V234.264H99.213L99.3234 233.767L99.213 233.689Z" fill="#736656"/>
<path d="M100.119 233.17L99.2129 233.689V234.263L100.119 233.744V233.17Z" fill="#5E4439"/>
<path d="M99.3011 233.336L100.328 232.739V231.9L99.3011 231.304H97.8543L96.8271 231.9V232.739L97.8543 233.336H99.3011Z" fill="#B5A794"/>
<path d="M97.8543 233.336L96.8271 232.751V233.403L97.8543 233.999L97.9426 233.458L97.8543 233.336Z" fill="#A39685"/>
<path d="M99.3013 233.336H97.8545V233.999H99.3013L99.4228 233.424L99.3013 233.336Z" fill="#736656"/>
<path d="M100.328 232.751L99.3013 233.336V233.999L100.328 233.403V232.751Z" fill="#5E4439"/>
<path d="M97.8541 233.336L96.827 232.751L95.3691 230.299L97.6995 230.928L97.8541 233.336Z" fill="#E09D38"/>
<path d="M99.3008 233.336L100.328 232.751L101.786 230.299L99.4664 230.928L99.3008 233.336Z" fill="#E09D38"/>
<path d="M99.2235 227.615L100.14 227.085V226.334L99.2235 225.804H97.9313L97.0146 226.334V227.085L97.9313 227.615H99.2235Z" fill="#FFF3AB"/>
<path d="M99.3008 233.336H97.854L97.2466 231.393H99.9083L99.3008 233.336Z" fill="#FFC654"/>
<path d="M99.9083 231.392H97.2466L97.5006 229.459H99.6543L99.9083 231.392Z" fill="#FBE979"/>
<path d="M101.786 230.299L99.9083 231.392L99.6543 229.46L101.178 228.576L101.786 230.299Z" fill="#FFC654"/>
<path d="M95.3691 230.299L97.2467 231.392L97.5007 229.46L95.9766 228.576L95.3691 230.299Z" fill="#FFC654"/>
<path d="M101.786 228.764V230.299L101.179 228.576V227.328L101.786 228.764Z" fill="#E09D38"/>
<path d="M101.178 227.328V228.576L100.14 227.085V226.334L101.178 227.328Z" fill="#FFC654"/>
<path d="M95.9766 227.328V228.576L97.0147 227.085V226.334L95.9766 227.328Z" fill="#FFC654"/>
<path d="M95.3691 228.764V230.299L95.9766 228.576V227.328L95.3691 228.764Z" fill="#E09D38"/>
<path d="M99.6542 229.46H97.5005L97.9312 227.615H99.2234L99.6542 229.46Z" fill="#FFF094"/>
<path d="M101.179 228.576L99.6544 229.46L99.2236 227.615L100.14 227.085L101.179 228.576Z" fill="#FBE979"/>
<path d="M95.9766 228.576L97.5007 229.46L97.9314 227.615L97.0147 227.085L95.9766 228.576Z" fill="#FBE979"/>
<path d="M95.0377 216.946H102.128L106.999 219.762V223.518L102.128 226.334H95.0377L90.1671 223.518V219.762L95.0377 216.946ZM94.9273 216.56L89.7695 219.542V223.761L94.9273 226.743H102.228L107.385 223.761V219.542L102.228 216.56H94.9273Z" fill="white"/>
<path d="M102.227 226.731H94.9271L90.3657 290.878L92.8949 305.246H104.26L105.486 290.679L102.227 226.731Z" fill="#E0DEDC"/>
<path d="M112.289 294.048V300.608L108.17 290.138L107.396 223.75V219.542L112.289 294.048Z" fill="#B5AFA7"/>
<path d="M84.8657 294.048V300.608L88.9964 290.138L89.7695 223.75V219.542L84.8657 294.048Z" fill="#E0DEDC"/>
<path d="M107.396 223.749L102.228 226.731L104.26 305.246L112.289 300.607L107.396 223.749Z" fill="#D1D1D1"/>
<path d="M89.7695 223.749L94.9272 226.731L92.895 305.246L84.8657 300.607L89.7695 223.749Z" fill="#F4EFE9"/>
<path opacity="0.3" d="M208.32 409.462L96.0645 344.642L134.046 322.686L246.302 387.505L208.32 409.462Z" fill="black"/>
<path d="M244.149 382.503L243.74 387.893L242.591 388.555L242.271 383.011L244.149 382.503Z" fill="#403531"/>
<path d="M242.757 383.309L242.591 388.555H240.979L239.421 382.503L242.757 383.309Z" fill="#544540"/>
<path d="M240.802 383.309L240.979 388.555L239.83 387.893L239.421 382.503L240.802 383.309Z" fill="#685750"/>
<path d="M239.421 381.387V382.503L240.802 383.309H242.757L244.148 382.503V381.387L242.757 380.581H240.802L239.421 381.387Z" fill="#836E69"/>
<path d="M210.828 401.775L210.419 407.154L209.27 407.817L208.95 402.272L210.828 401.775Z" fill="#403531"/>
<path d="M209.436 402.571L209.27 407.817H207.658L206.101 401.775L209.436 402.571Z" fill="#544540"/>
<path d="M207.481 402.571L207.658 407.817L206.509 407.154L206.101 401.775L207.481 402.571Z" fill="#685750"/>
<path d="M206.101 400.649V401.776L207.481 402.571H209.436L210.828 401.776V400.649L209.436 399.843H207.481L206.101 400.649Z" fill="#836E69"/>
<path d="M103.177 339.617L102.758 345.007L101.609 345.67L101.3 340.125L103.177 339.617Z" fill="#403531"/>
<path d="M101.786 340.423L101.609 345.67H99.9964L98.4502 339.617L101.786 340.423Z" fill="#544540"/>
<path d="M99.8308 340.423L99.9964 345.67L98.8588 345.007L98.4502 339.617L99.8308 340.423Z" fill="#685750"/>
<path d="M98.4502 338.502V339.617L99.8308 340.424H101.786L103.177 339.617V338.502L101.786 337.685H99.8308L98.4502 338.502Z" fill="#836E69"/>
<path d="M208.464 403.321L97.147 339.053V335.243L208.464 398.141L210.507 400.394L208.464 403.321Z" fill="#685750"/>
<path d="M245.441 381.939L208.464 403.321V398.141L245.441 378.14V381.939Z" fill="#403531"/>
<path d="M103.332 338.822L97.147 335.243L90.0454 291.187L101.896 290.425L103.332 338.822Z" fill="#C84030"/>
<path d="M111.229 316.28L107.882 317.186L102.824 312.349L105.033 312.702L110.643 312.967L111.229 316.28Z" fill="#AB281F"/>
<path d="M111.229 316.28L105.033 312.702L133.947 292.259L140.143 295.826L128.502 308.958L111.229 316.28Z" fill="#FA5C52"/>
<path d="M111.229 316.28L109.009 315.926L101.896 290.425L96.2412 294.765L103.332 338.822L140.309 317.451L142.617 297.869L140.143 295.826L111.229 316.28Z" fill="#8A1C14"/>
<path d="M96.2413 294.766L90.0454 291.187L95.7002 286.847L101.896 290.425L96.2413 294.766Z" fill="#FA5C52"/>
<path d="M207.404 397.082L241.553 377.334V372.011L207.404 391.758V397.082Z" fill="#418080"/>
<path d="M182.973 323.658L184.486 322.333L188.186 321.77L189.346 322.532L189.147 324.1L187.789 325.801L182.973 323.658Z" fill="#544540"/>
<path d="M175.861 331.014L175.816 330.561V329.158L180.19 325.304L181.372 325.083L182.973 323.658L186.894 323.979L187.789 325.801L186.938 326.861L182.719 330.152L181.46 332.262L175.861 331.014Z" fill="#685750"/>
<path d="M181.46 332.262L180.477 333.885L178.512 335.177L176.17 334.128L175.861 331.014H176.987H179.715L181.46 332.262Z" fill="#544540"/>
<path d="M175.375 315.386L180.753 325.182V327.667L177.871 330.561H174.812L168.549 322.211L175.375 315.386Z" fill="#B5AFA7"/>
<path d="M210.098 381.167L111.118 324.056L143.39 305.391L242.381 362.501L227.25 376.373L210.098 381.167Z" fill="#C84030"/>
<path d="M167.301 299.206L169.4 297.925L171.001 298.245L171.841 301.172L170.681 304.949L167.301 299.206Z" fill="#544540"/>
<path d="M161.227 305.07L163.336 303.623L167.301 299.205L168.991 299.746L170.681 304.948L164.893 308.714L162.342 309.41L161.227 305.07Z" fill="#685750"/>
<path d="M162.342 309.411L161.227 309.709L158.918 308.295L159.603 306.186L161.227 305.07L162.276 306.672L162.674 308.627L162.342 309.411Z" fill="#544540"/>
<path d="M168.549 322.211L155.539 321.007L152.977 312.116L156.345 308.803L165.954 309.156L175.375 315.385L168.549 322.211Z" fill="#B5AFA7"/>
<path d="M137.139 321.825L139.811 328.23L142.451 331.444L148.713 333.686L157.968 333.212L182.686 312.117L183.404 307.92L179.958 305.103L169.598 303.822H166.539L164.54 306.473L164.695 309.919L167.191 311.288L155.947 316.512L137.139 321.825Z" fill="#E6E1DD"/>
<path d="M130.81 298.598L136.476 296.676L137.139 291.11L134.665 289.53L129.176 288.812L130.81 298.598Z" fill="#E3BD5E"/>
<path d="M138.431 288.636L138.155 291.01L137.923 293.363L140.264 296.433L145.234 296.731L148.006 295.262L147.62 294.081L147.178 292.545L147.255 289.53L147.73 287.465L144.936 286.14L139.06 286.592L138.431 288.636Z" fill="#F0C6B4"/>
<path d="M147.62 294.081L147.178 295.186L144.66 295.517L141.115 294.49L138.707 293.043L138.155 291.011L134.488 291.375L132.257 293.242L130.689 299.018L132.434 305.048L135.869 311.067L137.017 321.604L138.276 323.835L147.178 328.827H153.275L157.969 325.282V321.239L156.831 316.965L156.588 312.989L157.306 309.378L157.163 306.561L156.224 301.735L152.292 297.196L147.62 294.081Z" fill="#FBE979"/>
<path d="M149.983 280.419L150.624 280.761V281.943L150.304 282.33L149.983 281.8V280.419Z" fill="#F0C6B4"/>
<path d="M146.461 275.129L148.438 276.366L150.205 278.685L150.481 282.164L150.923 283.368L150.47 287.697L148.692 289.233L147.256 289.531L146.693 288.581L145.986 288.305L145.743 287.697L144.439 287.565L143.423 275.515L146.461 275.129Z" fill="#F0C6B4"/>
<path d="M147.83 280.331L146.107 280.496L145.102 279.778L145.179 278.574L146.074 277.371L146.604 276.078L146.438 275.029L145.389 274.311L142.694 274.068L140.364 275.04L138.001 276.918L136.233 278.884L135.471 281.181L135.306 283.103L135.67 285.356L136.752 287.123L137.956 288.327L139.69 289.453L141.811 289.807H143.545L144.903 288.89L145.743 287.697L145.676 286.526L146.593 285.19L147.664 284.925L148.117 285.51L148.957 284.748L148.714 283.423V281.501L147.83 280.331Z" fill="#944E39"/>
<path d="M167.191 311.288L166.197 310.758L176.17 307.014L167.191 311.288Z" fill="#B5AFA7"/>
<path d="M171.034 314.966L177.032 321.173L178.268 324.884L176.214 328.021L175.176 328.573L172.349 327.082L172.547 325.691L172.282 324.122L171.377 323.504L168.814 319.716L168.925 318.202L170.438 314.624L171.034 314.966Z" fill="#F0C6B4"/>
<path d="M200.368 344.057L101.377 286.935L105.209 284.03L204.201 341.152L203.085 346.398L200.368 344.057Z" fill="#FA5C52"/>
<path d="M207.404 391.758L108.423 334.637L101.377 286.936L200.368 344.057L204.201 354.296L207.404 391.758Z" fill="#C84030"/>
<path d="M210.098 381.166L204.201 341.152L200.368 344.057L207.403 391.758L242.381 371.536V362.501L210.098 381.166Z" fill="#8A1C14"/>
<path d="M168.925 318.202L157.185 316.512L151.894 313.055L147.675 307.158L146.836 303.06L148.713 300.708L152.91 299.504L155.208 302.155L157.428 307.158L157.914 308.836L159.78 309.322L170.438 314.624L170.681 315.828L170.151 317.694L168.925 318.202Z" fill="#E3BD5E"/>
<path d="M151.773 311.697L152.292 309.864L154.181 309.378L152.977 310.195L151.773 311.697Z" fill="#CC934C"/>
<path d="M112.532 281.369L113.371 280.154L113.051 277.824L110.334 276.918L105.938 278.398V280.883L107.341 281.766L112.532 281.369Z" fill="#F0C6B4"/>
<path d="M107.341 281.766L108.291 286.802L111.902 291.375L120.34 295.229L130.81 298.598V292.203L129.176 288.813L127.563 288.603L116.486 286.261L116.176 284.693L112.532 281.369L111.361 279.889L107.904 280.187L107.341 281.766Z" fill="#E3BD5E"/>
<path d="M202.268 395.944L103.332 338.822L96.694 319.395L96.2412 294.766L200.832 347.547L202.268 395.944Z" fill="#C84030"/>
<path d="M195.177 351.887L96.2412 294.765L101.896 290.425L200.832 347.547L195.177 351.887Z" fill="#FA5C52"/>
<path d="M208.464 399.522L202.268 395.944L195.177 351.887L207.028 351.114L208.464 399.522Z" fill="#C84030"/>
<path d="M216.35 376.981L213.003 377.886L207.945 373.049L210.165 373.402L215.764 373.667L216.35 376.981Z" fill="#AB281F"/>
<path d="M216.349 376.98L210.165 373.402L239.079 352.947L245.264 356.526L233.634 369.646L216.349 376.98Z" fill="#FA5C52"/>
<path d="M216.35 376.98L214.141 376.627L207.028 351.114L201.362 355.466L208.464 399.522L245.441 378.14L247.738 358.558L245.264 356.526L216.35 376.98Z" fill="#8A1C14"/>
<path d="M201.362 355.466L195.177 351.887L200.832 347.547L207.028 351.114L201.362 355.466Z" fill="#FA5C52"/>
<path opacity="0.3" d="M249.152 416.31H239.102L231.834 412.124V405.928L239.102 401.742H249.152L256.43 405.928V412.124L249.152 416.31Z" fill="black"/>
<path d="M249.03 414.598H239.223L232.287 410.6V404.923L239.223 400.925H249.03L255.977 404.923V410.6L249.03 414.598Z" fill="#574943"/>
<path d="M239.223 415.857L244.127 415.073L239.223 414.598L232.287 410.6V411.848L239.223 415.857Z" fill="#362C29"/>
<path d="M255.978 411.848V410.6L249.031 414.598L244.127 415.073L249.031 415.857L255.978 411.848Z" fill="#0A0808"/>
<path d="M249.031 414.598H239.223V415.857H249.031V414.598Z" fill="#211A1A"/>
<path d="M244.977 407.275H243.288L242.095 406.58V405.608L243.288 404.923H244.977L246.17 405.608V406.58L244.977 407.275Z" fill="#574943"/>
<path d="M243.288 408.39L244.138 408.258L243.288 407.275L242.095 406.579V407.706L243.288 408.39Z" fill="#362C29"/>
<path d="M246.17 407.706V406.579L244.978 407.275L244.138 408.258L244.978 408.39L246.17 407.706Z" fill="#0A0808"/>
<path d="M244.977 407.275H243.288V408.402H244.977V407.275Z" fill="#211A1A"/>
<path d="M244.536 322.708H243.74L243.166 322.388V321.924L243.74 321.604H244.536L245.099 321.924V322.388L244.536 322.708Z" fill="#574943"/>
<path d="M243.74 406.613L244.138 405.895L243.74 322.708L243.166 322.388V406.292L243.74 406.613Z" fill="#362C29"/>
<path d="M245.099 406.292V322.388L244.535 322.708L244.138 405.895L244.535 406.613L245.099 406.292Z" fill="#0A0808"/>
<path d="M244.535 322.708H243.74V406.613H244.535V322.708Z" fill="#211A1A"/>
<path d="M240.603 300.994L235.545 303.645L232.651 373.457L242.128 369.26L240.603 300.994Z" fill="#D1D1D1"/>
<path d="M247.694 300.994L252.752 303.645L255.646 373.457L246.17 369.26L247.694 300.994Z" fill="#D1D1D1"/>
<path d="M247.694 300.994L246.424 300.784H241.807L240.603 300.994L238.472 373.457H249.825L247.694 300.994Z" fill="#E0DEDC"/>
<path d="M244.569 320.2L245.165 319.858V319.372L244.569 319.029H243.729L243.133 319.372V319.858L243.729 320.2H244.569Z" fill="#B5A794"/>
<path d="M243.729 320.2L243.144 319.857L243.497 320.907L243.884 321.128L243.785 320.266L243.729 320.2Z" fill="#836E69"/>
<path d="M244.568 320.2H243.729L243.884 321.128H244.414L244.635 320.255L244.568 320.2Z" fill="#685750"/>
<path d="M245.165 319.857L244.569 320.2L244.414 321.128L244.801 320.907L245.165 319.857Z" fill="#403531"/>
<path d="M244.789 319.979L245.684 319.46V318.731L244.789 318.212H243.519L242.625 318.731V319.46L243.519 319.979H244.789Z" fill="#B5A794"/>
<path d="M243.508 319.979L242.614 319.46V320.034L243.508 320.553L243.586 320.078L243.508 319.979Z" fill="#A39685"/>
<path d="M244.789 319.979H243.508V320.554H244.789L244.889 320.057L244.789 319.979Z" fill="#736656"/>
<path d="M245.684 319.46L244.79 319.979V320.553L245.684 320.034V319.46Z" fill="#5E4439"/>
<path d="M244.878 319.626L245.905 319.03V318.19L244.878 317.594H243.431L242.404 318.19V319.03L243.431 319.626H244.878Z" fill="#B5A794"/>
<path d="M243.42 319.626L242.404 319.041V319.693L243.42 320.289L243.508 319.737L243.42 319.626Z" fill="#A39685"/>
<path d="M244.878 319.626H243.42V320.289H244.878L244.999 319.714L244.878 319.626Z" fill="#736656"/>
<path d="M245.905 319.041L244.878 319.626V320.289L245.905 319.693V319.041Z" fill="#5E4439"/>
<path d="M244.789 318.841L245.684 318.322V317.593L244.789 317.074H243.519L242.625 317.593V318.322L243.519 318.841H244.789Z" fill="#B5A794"/>
<path d="M243.508 318.841L242.614 318.322V318.908L243.508 319.416L243.586 318.941L243.508 318.841Z" fill="#A39685"/>
<path d="M244.789 318.842H243.508V319.416H244.789L244.889 318.919L244.789 318.842Z" fill="#736656"/>
<path d="M245.684 318.322L244.79 318.841V319.416L245.684 318.908V318.322Z" fill="#5E4439"/>
<path d="M244.878 318.499L245.905 317.903V317.063L244.878 316.467H243.431L242.404 317.063V317.903L243.431 318.499H244.878Z" fill="#B5A794"/>
<path d="M243.42 318.499L242.404 317.902V318.565L243.42 319.15L243.508 318.609L243.42 318.499Z" fill="#A39685"/>
<path d="M244.878 318.499H243.42V319.151H244.878L244.999 318.576L244.878 318.499Z" fill="#736656"/>
<path d="M245.905 317.902L244.878 318.499V319.15L245.905 318.565V317.902Z" fill="#5E4439"/>
<path d="M244.789 317.737L245.684 317.218V316.478L244.789 315.959H243.519L242.625 316.478V317.218L243.519 317.737H244.789Z" fill="#B5A794"/>
<path d="M243.508 317.737L242.614 317.218V317.792L243.508 318.311L243.586 317.836L243.508 317.737Z" fill="#A39685"/>
<path d="M244.789 317.737H243.508V318.312H244.789L244.889 317.804L244.789 317.737Z" fill="#736656"/>
<path d="M245.684 317.218L244.79 317.737V318.311L245.684 317.792V317.218Z" fill="#5E4439"/>
<path d="M244.878 317.384L245.905 316.787V315.948L244.878 315.352H243.431L242.404 315.948V316.787L243.431 317.384H244.878Z" fill="#B5A794"/>
<path d="M243.42 317.384L242.404 316.787V317.45L243.42 318.046L243.508 317.494L243.42 317.384Z" fill="#A39685"/>
<path d="M244.878 317.384H243.42V318.046H244.878L244.999 317.472L244.878 317.384Z" fill="#736656"/>
<path d="M245.905 316.787L244.878 317.384V318.046L245.905 317.45V316.787Z" fill="#5E4439"/>
<path d="M243.42 317.384L242.404 316.787L240.935 314.347L243.265 314.976L243.42 317.384Z" fill="#E09D38"/>
<path d="M244.878 317.384L245.905 316.787L247.363 314.347L245.033 314.976L244.878 317.384Z" fill="#E09D38"/>
<path d="M244.801 311.652L245.717 311.122V310.371L244.801 309.841H243.508L242.592 310.371V311.122L243.508 311.652H244.801Z" fill="#FFF3AB"/>
<path d="M244.878 317.385H243.42L242.824 315.43H245.485L244.878 317.385Z" fill="#FFC654"/>
<path d="M245.485 315.429H242.824L243.078 313.496H245.231L245.485 315.429Z" fill="#FBE979"/>
<path d="M247.363 314.347L245.485 315.429L245.231 313.497L246.756 312.624L247.363 314.347Z" fill="#FFC654"/>
<path d="M240.935 314.347L242.824 315.429L243.078 313.497L241.554 312.624L240.935 314.347Z" fill="#FFC654"/>
<path d="M247.363 312.812V314.347L246.755 312.624V311.376L247.363 312.812Z" fill="#E09D38"/>
<path d="M246.755 311.376V312.624L245.717 311.133V310.382L246.755 311.376Z" fill="#FFC654"/>
<path d="M241.554 311.376V312.624L242.581 311.133V310.382L241.554 311.376Z" fill="#FFC654"/>
<path d="M240.935 312.812V314.347L241.554 312.624V311.376L240.935 312.812Z" fill="#E09D38"/>
<path d="M245.231 313.497H243.078L243.497 311.652H244.801L245.231 313.497Z" fill="#FFF094"/>
<path d="M246.756 312.624L245.232 313.496L244.801 311.652L245.717 311.133L246.756 312.624Z" fill="#FBE979"/>
<path d="M241.554 312.624L243.078 313.496L243.498 311.652L242.581 311.133L241.554 312.624Z" fill="#FBE979"/>
<path d="M240.603 300.994H247.694L252.565 303.811V307.566L247.694 310.382H240.603L235.733 307.566V303.811L240.603 300.994ZM240.493 300.597L235.324 303.579V307.798L240.493 310.78H247.793L252.962 307.798V303.579L247.793 300.597H240.493Z" fill="white"/>
<path d="M247.805 310.779H240.493L235.943 374.914L238.472 389.294H249.837L251.063 374.727L247.805 310.779Z" fill="#E0DEDC"/>
<path d="M257.866 378.096V384.656L253.736 374.175L252.962 307.798V303.579L257.866 378.096Z" fill="#B5AFA7"/>
<path d="M230.432 378.096V384.656L234.562 374.175L235.335 307.798V303.579L230.432 378.096Z" fill="#E0DEDC"/>
<path d="M252.962 307.798L247.805 310.78L249.837 389.295L257.866 384.656L252.962 307.798Z" fill="#D1D1D1"/>
<path d="M235.335 307.798L240.493 310.78L238.472 389.295L230.432 384.656L235.335 307.798Z" fill="#F4EFE9"/>
<path opacity="0.3" d="M445.025 392.023L229.879 267.784L244.259 259.489L459.405 383.706L445.025 392.023Z" fill="black"/>
<path d="M445.024 220.878L437.404 301.856L445.024 370.144L454.755 364.511V215.257L445.024 220.878Z" fill="#D1D1D1"/>
<path d="M243.375 94.2317L354.062 219.929L436.189 205.56L445.908 199.927L253.105 88.6211L243.375 94.2317Z" fill="white"/>
<path d="M436.189 205.559L435.438 215.345L445.025 220.878L454.755 215.256L445.908 199.927L436.189 205.559Z" fill="#E6E1DD"/>
<path d="M436.189 205.559L445.025 220.878V370.144L436.178 375.224L243.364 263.918L234.529 248.589V99.345L243.375 94.2314L436.189 205.559Z" fill="#F4EFE9"/>
<path d="M245.662 261.644L237.632 247.75V101.135L243.375 97.8105L252.255 102.946L294.257 153.353L409.296 193.61L433.903 207.824L441.91 221.707V368.322L436.189 371.647L409.296 356.129L300.784 268.425L252.255 265.443L245.662 261.644Z" fill="#574943"/>
<path d="M429.12 273.141L434.808 282.982V296.235L429.12 299.537L421.058 294.887L415.37 285.025V271.771L421.058 268.491L429.12 273.141Z" fill="#403531"/>
<path d="M429.982 283.103V290.569L427.099 292.225L423.057 289.884L420.207 284.936V277.459L423.057 275.802L427.088 278.144L429.982 283.103ZM430.501 283.158L427.32 277.669L422.847 275.073L419.677 276.896V284.859L422.847 290.348L427.32 292.943L430.49 291.099V283.158H430.501Z" fill="#A39685"/>
<path d="M242.779 174.426L240.78 175.597L240.769 179.55L243.176 183.714L246.6 185.691L248.632 184.509L245.208 182.543L242.834 178.369L242.779 174.426Z" fill="#362C29"/>
<path d="M246.589 176.181L243.176 174.204L242.79 174.425H242.779L242.834 178.368L245.209 182.543L248.632 184.509L249.03 184.299L249.008 180.356L246.589 176.181Z" fill="#7DD2E3"/>
<path d="M252.255 265.442V102.945L409.296 193.609V356.128L252.255 265.442Z" fill="#275C78"/>
<path d="M255.568 199.905L255.557 259.832L405.982 346.686V286.748L255.568 199.905Z" fill="#377691"/>
<path d="M261.433 252.345L258.241 250.501V227.782L261.433 229.627V252.345Z" fill="#FA5C52"/>
<path d="M265.972 243.144L262.769 241.3V230.41L265.972 232.255V243.144Z" fill="#FA5C52"/>
<path d="M270.511 236.595L267.319 234.74V233.039L270.511 234.883V236.595Z" fill="#FA5C52"/>
<path d="M275.051 232.255L271.848 230.41V235.667L275.051 237.512V232.255Z" fill="#CFDB77"/>
<path d="M279.59 227.318L276.387 225.463V238.297L279.59 240.141V227.318Z" fill="#CFDB77"/>
<path d="M284.118 221.542L280.926 219.697V240.914L284.118 242.758V221.542Z" fill="#CFDB77"/>
<path d="M288.657 235.734L285.465 233.9V243.542L288.657 245.387V235.734Z" fill="#CFDB77"/>
<path d="M293.197 244.989L290.005 243.145V246.171L293.197 248.015V244.989Z" fill="#CFDB77"/>
<path d="M297.736 253.273L294.544 251.428V248.8L297.736 250.644V253.273Z" fill="#FA5C52"/>
<path d="M302.275 262.859L299.083 261.014V251.428L302.275 253.272V262.859Z" fill="#FA5C52"/>
<path d="M306.814 287.488L303.623 285.655V254.057L306.814 255.901V287.488Z" fill="#FA5C52"/>
<path d="M311.353 277.99L308.162 276.157V256.686L311.353 258.53V277.99Z" fill="#FA5C52"/>
<path d="M315.893 273.362L312.701 271.518V259.303L315.893 261.147V273.362Z" fill="#FA5C52"/>
<path d="M320.432 269.188L317.24 267.343V261.932L320.432 263.776V269.188Z" fill="#FA5C52"/>
<path d="M324.96 269.11L321.769 267.265V264.56L324.96 266.404V269.11Z" fill="#FA5C52"/>
<path d="M329.499 265.488L326.308 263.644V267.189L329.499 269.033V265.488Z" fill="#CFDB77"/>
<path d="M334.039 261.931L330.847 260.087V269.806L334.039 271.661V261.931Z" fill="#CFDB77"/>
<path d="M338.578 266.492L335.386 264.637V272.445L338.578 274.29V266.492Z" fill="#CFDB77"/>
<path d="M343.118 274.29L339.926 272.445V275.063L343.118 276.907V274.29Z" fill="#CFDB77"/>
<path d="M347.657 271.694L344.465 269.85V277.691L347.657 279.547V271.694Z" fill="#CFDB77"/>
<path d="M352.196 267.762L349.004 265.918V280.32L352.196 282.164V267.762Z" fill="#CFDB77"/>
<path d="M356.735 271.694L353.532 269.85V282.948L356.735 284.782V271.694Z" fill="#CFDB77"/>
<path d="M361.275 265.488L358.072 263.644V285.578L361.275 287.422V265.488Z" fill="#CFDB77"/>
<path d="M365.814 272.578L362.611 270.733V288.206L365.814 290.05V272.578Z" fill="#CFDB77"/>
<path d="M370.342 284.009L367.15 282.165V290.824L370.342 292.668V284.009Z" fill="#CFDB77"/>
<path d="M374.881 300.719L371.689 298.864V293.452L374.881 295.297V300.719Z" fill="#FA5C52"/>
<path d="M379.42 309.511L376.229 307.667V296.081L379.42 297.925V309.511Z" fill="#FA5C52"/>
<path d="M383.96 303.259L380.768 301.415V298.709L383.96 300.542V303.259Z" fill="#FA5C52"/>
<path d="M388.499 300.542L385.307 298.709V301.327L388.499 303.182V300.542Z" fill="#CFDB77"/>
<path d="M393.039 296.998L389.847 295.153V303.956L393.039 305.8V296.998Z" fill="#CFDB77"/>
<path d="M397.577 293.595L394.375 291.751V306.584L397.577 308.428V293.595Z" fill="#CFDB77"/>
<path d="M402.117 286.638L398.914 284.782V309.213L402.117 311.057V286.638Z" fill="#CFDB77"/>
<path d="M257.413 226.865V227.76L403.122 311.874V310.98L257.413 226.865Z" fill="#8CCCCB"/>
<path d="M272.3 144.738L267.64 147.422V155.043L272.3 163.105L294.422 175.884L299.083 173.189V165.579L294.422 157.506L272.3 144.738Z" fill="#CFDB77"/>
<path d="M279.766 161.548L278.651 162.177L274.333 159.681V150.702L278.651 153.198L279.766 155.12V157.34L279.026 157.76L279.766 159.041V161.548ZM278.706 156.224V155.043L278.209 154.17L275.393 152.536V155.252L277.889 156.699L278.706 156.224ZM278.706 160.432V158.963L278.242 158.135L275.393 156.489V159.085L278.231 160.719L278.706 160.432Z" fill="white"/>
<path d="M287.232 165.878L286.128 166.507L282.075 164.166L280.97 162.255V154.546L282.03 155.153V162.343L282.516 163.194L285.708 165.038L286.183 164.751V157.55L287.243 158.157V165.878H287.232Z" fill="white"/>
<path d="M294.058 162.1L291.794 165.325V169.776L290.733 169.168V164.706L288.469 158.875L289.673 159.571L291.252 163.646L292.832 161.404L294.058 162.1Z" fill="white"/>
<path d="M272.3 168.119L267.64 170.803V178.424L272.3 186.486L294.422 199.264L299.083 196.57V188.96L294.422 180.898L272.3 168.119Z" fill="#FA5C52"/>
<path d="M278.85 184.432L277.745 185.061L274.211 183.018L273.106 181.107L273.857 180.665L274.642 182.035L277.314 183.581L277.789 183.294V181.803L277.303 180.964L274.211 179.174L273.106 177.264V174.646L274.211 174.017L277.745 176.049L278.85 177.959L278.099 178.401L277.314 177.032L274.642 175.486L274.167 175.773V177.352L274.653 178.202L277.745 179.992L278.85 181.913V184.432Z" fill="white"/>
<path d="M283.963 188.651L279.899 186.309V177.33L283.963 179.671V180.897L280.959 179.163V181.704L283.256 183.029V184.255L280.959 182.93V185.702L283.963 187.436V188.651Z" fill="white"/>
<path d="M289.066 191.599L285.178 189.357V180.378L286.239 180.985V188.75L289.066 190.384V191.599Z" fill="white"/>
<path d="M294.124 194.515L290.236 192.273V183.294L291.297 183.901V191.666L294.124 193.3V194.515Z" fill="white"/>
<path d="M405.784 275.912L314.06 222.954V149.299L405.784 202.246V275.912Z" fill="#377691"/>
<path d="M402.393 267.044L402.272 266.978V206.587L317.749 157.792V157.638L402.393 206.509V267.044Z" fill="#B4CED6"/>
<path d="M397.092 263.985L396.959 263.919V203.439L397.092 203.517V263.985Z" fill="#B4CED6"/>
<path d="M391.791 260.926L391.647 260.837V200.38L391.791 200.446V260.926Z" fill="#B4CED6"/>
<path d="M386.478 257.855L386.346 257.778V197.32L386.478 197.398V257.855Z" fill="#B4CED6"/>
<path d="M381.166 254.796L381.044 254.718V194.25L381.166 194.327V254.796Z" fill="#B4CED6"/>
<path d="M375.875 251.725L375.743 251.648V191.19L375.875 191.268V251.725Z" fill="#B4CED6"/>
<path d="M370.563 248.666L370.431 248.588V188.12L370.563 188.186V248.666Z" fill="#B4CED6"/>
<path d="M365.251 245.596L365.118 245.53V185.062L365.251 185.139V245.596Z" fill="#B4CED6"/>
<path d="M359.938 242.536L359.817 242.459V181.99L359.938 182.068V242.536Z" fill="#B4CED6"/>
<path d="M354.637 239.477L354.504 239.4V178.932L354.637 179.009V239.477Z" fill="#B4CED6"/>
<path d="M349.335 236.396L349.192 236.329V175.872L349.335 175.949V236.396Z" fill="#B4CED6"/>
<path d="M344.023 233.347L343.891 233.27V172.802L344.023 172.879V233.347Z" fill="#B4CED6"/>
<path d="M338.722 230.277L338.589 230.2V169.731L338.722 169.809V230.277Z" fill="#B4CED6"/>
<path d="M333.409 227.218L333.277 227.14V166.672L333.409 166.749V227.218Z" fill="#B4CED6"/>
<path d="M328.108 224.158L327.976 224.081V163.612L328.108 163.69V224.158Z" fill="#B4CED6"/>
<path d="M322.796 221.099L322.663 221.011V160.554L322.796 160.62V221.099Z" fill="#B4CED6"/>
<path d="M402.338 212.749L317.749 163.922V163.756L402.338 212.594V212.749Z" fill="#B4CED6"/>
<path d="M402.338 218.88L317.749 170.041V169.897L402.338 218.736V218.88Z" fill="#B4CED6"/>
<path d="M402.338 225.009L317.749 176.17V176.016L402.338 224.854V225.009Z" fill="#B4CED6"/>
<path d="M402.338 231.128L317.749 182.289V182.146L402.338 230.984V231.128Z" fill="#B4CED6"/>
<path d="M402.338 237.257L317.749 188.418V188.264L402.338 237.113V237.257Z" fill="#B4CED6"/>
<path d="M402.338 243.387L317.749 194.559V194.394L402.338 243.243V243.387Z" fill="#B4CED6"/>
<path d="M402.338 249.516L317.749 200.689V200.534L402.338 249.362V249.516Z" fill="#B4CED6"/>
<path d="M402.338 255.646L317.749 206.808V206.653L402.338 255.492V255.646Z" fill="#B4CED6"/>
<path d="M402.338 261.776L317.749 212.938V212.794L402.338 261.621V261.776Z" fill="#B4CED6"/>
<path d="M317.749 218.117V156.633L316.71 156.036V218.713L402.758 268.402V267.198L317.749 218.117Z" fill="#428AA8"/>
<path d="M348.375 208.894L347.005 206.531L345.073 205.404L343.703 206.199V208.43L345.073 210.805L347.005 211.921L348.375 211.125V208.894Z" fill="#FA5C52"/>
<path d="M359.706 217.465L358.348 215.079L356.415 213.964L355.045 214.759V217.001L356.415 219.376L358.348 220.491L359.706 219.696V217.465Z" fill="#FA5C52"/>
<path d="M385.86 222.898L384.49 220.524L382.546 219.408L381.177 220.203V222.434L382.546 224.809L384.49 225.924L385.86 225.129V222.898Z" fill="#FA5C52"/>
<path d="M392.288 220.292L390.918 217.917L388.985 216.802L387.616 217.597V219.828L388.985 222.202L390.918 223.329L392.288 222.523V220.292Z" fill="#FA5C52"/>
<path d="M402.062 222.313L400.361 219.353L397.953 217.973L396.252 218.967V221.717L397.953 224.677L400.361 226.068L402.062 225.085V222.313Z" fill="#FA5C52"/>
<path d="M317.837 198.656L317.66 197.342L345.956 207.834L346.033 207.9L357.321 216.559L383.485 221.927L389.736 219.254L398.991 221.341L399.312 222.7L390.266 220.646L384.026 223.329L357.398 217.873L357.277 217.774L345.956 209.093L317.837 198.656Z" fill="#FA5C52"/>
<path d="M402.062 210.97L400.361 208.021L397.953 206.63L396.252 207.613V210.396L397.953 213.334L400.361 214.725L402.062 213.743V210.97Z" fill="#CFDB77"/>
<path d="M384.335 207.06L382.966 204.686L381.022 203.57L379.652 204.365V206.585L381.022 208.96L382.966 210.087L384.335 209.291V207.06Z" fill="#CFDB77"/>
<path d="M368.542 210.198L367.172 207.834L365.229 206.719L363.87 207.514V209.745L365.229 212.108L367.172 213.224L368.542 212.44V210.198Z" fill="#CFDB77"/>
<path d="M350.296 200.512L348.927 198.137L346.994 197.021L345.625 197.817V200.048L346.994 202.422L348.927 203.538L350.296 202.754V200.512Z" fill="#CFDB77"/>
<path d="M338.159 197.176L336.789 194.801L334.856 193.686L333.487 194.47V196.712L334.856 199.086L336.789 200.202L338.159 199.418V197.176Z" fill="#CFDB77"/>
<path d="M335.872 197.607L335.74 197.496L317.627 182.134L317.87 181.073L335.85 196.337L347.922 199.495L366.256 209.469L381.806 205.934L398.991 209.999L399.301 211.357L382.27 207.315L366.598 210.882L348.021 200.765L335.872 197.607Z" fill="#CFDB77"/>
<path opacity="0.3" d="M425.73 376.075L388.72 375.975L379.244 381.409L365.969 373.7L365.98 371.723L362.059 369.459L300.983 333.984L295.45 337.165L291.518 343.924L291.496 350.308L352.561 385.783L356.471 388.058L358.194 387.064L363.76 390.289L362.512 391.007L362.446 412.389L362.424 423.676L388.555 438.851L425.554 438.94L451.773 423.897L451.784 412.61L451.839 391.25L425.73 376.075ZM392.531 422.108L371.955 410.147L371.977 403.244L392.597 391.404L421.776 391.393L442.352 403.344L442.33 410.324L421.688 422.174L392.531 422.108Z" fill="black"/>
<path d="M352.594 376.02L356.537 369.261L362.07 366.08L365.98 368.344L365.958 374.728L362.026 381.498L356.493 384.69L352.583 382.415L352.594 376.02Z" fill="#CC934C"/>
<path d="M356.537 369.261L362.07 366.08L300.994 330.616L295.461 333.786L355.797 369.349L356.537 369.261Z" fill="#FBE979"/>
<path d="M352.594 376.02L356.537 369.261L295.461 333.786L291.529 340.545L351.898 376.329L352.594 376.02Z" fill="#E3BD5E"/>
<path d="M352.583 382.414L352.594 376.02L291.529 340.545L291.507 346.94L352.583 382.414Z" fill="#D6A950"/>
<path d="M372.916 386.997L376.13 381.464L380.669 378.857L383.861 380.724L383.85 385.937L380.636 391.481L376.108 394.077L372.905 392.232L372.916 386.997Z" fill="white"/>
<path d="M378.725 383.386L380.669 378.858L361.904 367.957L357.365 370.564L375.533 381.542L378.725 383.386Z" fill="white"/>
<path d="M372.916 386.998L376.13 381.464L357.365 370.563L354.151 376.108L372.342 387.252L372.916 386.998Z" fill="#F4EFE9"/>
<path d="M372.905 392.232L372.916 386.997L354.151 376.107L354.129 381.331L372.905 392.232Z" fill="#D1D1D1"/>
<path d="M373.943 387.208L393.006 376.506L392.597 388.025L371.436 400.185L371.381 389.848L373.943 387.208Z" fill="#CC934C"/>
<path d="M404.382 375.965L421.799 378.174L421.777 388.025H392.597L392.641 378.096L404.382 375.965Z" fill="#D6A950"/>
<path d="M421.798 378.174L448.393 389.848L447.907 403.201L421.776 388.025L421.798 378.174Z" fill="#E3BD5E"/>
<path opacity="0.5" d="M371.977 393.581L371.966 397.933L392.608 386.082L421.766 386.159L442.342 398.109L442.364 393.758L421.788 381.819L392.63 381.73L371.977 393.581Z" fill="#5C74AD"/>
<path opacity="0.5" d="M368.255 408.281L371.977 393.581L392.63 381.73L421.788 381.819L442.364 393.758L445.566 408.668L421.677 422.451L392.52 422.374L368.255 408.281Z" fill="#A39685"/>
<path d="M425.598 424.295L451.817 409.253L451.873 387.893L425.741 372.707L388.731 372.607L362.534 387.65L362.468 409.032L388.599 424.196L425.598 424.295ZM371.955 406.779L371.999 389.947L392.641 378.108L421.799 378.185L442.374 390.135L442.33 406.967L421.688 418.817L392.531 418.751L371.955 406.779Z" fill="#FBE979"/>
<path d="M425.598 424.295L451.817 409.253L451.795 420.54L425.576 435.583L423.411 427.134L425.598 424.295Z" fill="#CC934C"/>
<path d="M388.588 424.196L425.598 424.296L425.576 435.583L388.577 435.495L385.54 426.35L388.588 424.196Z" fill="#D6A950"/>
<path d="M362.457 409.032L388.588 424.196L388.577 435.495L362.446 420.32L362.457 409.032Z" fill="#E3BD5E"/>
</svg>
