<?xml version="1.0" standalone="no"?>
<!DOCTYPE svg PUBLIC "-//W3C//DTD SVG 20010904//EN"
 "http://www.w3.org/TR/2001/REC-SVG-20010904/DTD/svg10.dtd">
<svg version="1.0" xmlns="http://www.w3.org/2000/svg"
 width="225.000000pt" height="225.000000pt" viewBox="0 0 225.000000 225.000000"
 preserveAspectRatio="xMidYMid meet">

<g transform="translate(0.000000,225.000000) scale(0.100000,-0.100000)"
fill="#c3073f" stroke="none">
<path d="M715 1776 l-510 -294 -5 -329 c-3 -181 -9 -318 -13 -306 -13 37 -76
85 -105 81 -44 -5 -37 -31 17 -68 57 -39 52 -50 -22 -50 -55 0 -73 -22 -39
-46 11 -8 22 -27 24 -42 2 -21 9 -28 30 -30 17 -2 36 -15 48 -33 12 -16 30
-29 41 -29 13 0 19 -7 19 -24 0 -13 6 -26 13 -29 7 -2 243 128 525 291 l512
296 1 55 1 56 15 -70 c8 -38 20 -75 26 -81 9 -9 56 14 187 91 172 100 175 103
178 138 3 31 10 40 43 59 l39 22 0 192 0 193 -86 50 c-47 28 -90 51 -96 51 -5
0 -65 -33 -134 -72 l-124 -73 0 -157 c0 -145 -1 -158 -19 -168 -11 -5 -22 -10
-25 -10 -3 0 -7 140 -8 312 -2 203 -7 313 -13 315 -6 2 -240 -129 -520 -291z
m443 40 c2 -17 0 -26 -7 -22 -5 4 -13 1 -17 -5 -4 -6 1 -16 10 -21 14 -8 16
-34 16 -212 l0 -203 -291 -168 c-181 -105 -294 -164 -300 -158 -5 5 -8 110 -7
253 l3 244 60 35 c344 201 502 290 515 288 8 -1 16 -15 18 -31z m432 -238 c0
-11 -157 -108 -174 -108 -3 0 -6 6 -6 13 0 12 153 106 173 107 4 0 7 -6 7 -12z
m-1070 -212 l0 -155 -97 -57 c-145 -85 -133 -94 -133 92 l0 159 98 57 c53 31
105 57 115 57 15 1 17 -13 17 -153z m770 -16 c0 -38 -2 -70 -4 -70 -8 0 -28
111 -22 126 14 36 26 9 26 -56z m-830 -373 c0 -7 -4 -6 -10 3 -8 13 -10 13
-10 -1 0 -25 -49 -54 -64 -38 -8 9 -8 10 0 6 7 -4 15 0 18 9 4 9 9 14 13 10 3
-3 13 3 20 14 15 21 33 19 33 -3z m-20 -64 c0 -9 -3 -14 -6 -10 -4 3 -15 -4
-26 -16 -16 -18 -16 -16 2 11 24 36 30 39 30 15z m-309 -30 c22 -20 47 -49 55
-64 23 -45 16 -48 -9 -4 -12 21 -42 54 -65 72 -24 18 -39 33 -33 33 6 0 29
-17 52 -37z m312 -44 c-6 -6 -9 -1 -7 13 3 33 6 36 11 14 3 -10 1 -22 -4 -27z
m-32 -22 c-10 -9 -11 -8 -5 6 3 10 9 15 12 12 3 -3 0 -11 -7 -18z m-304 -32
c20 -8 33 -18 30 -22 -4 -3 -12 -1 -19 5 -7 5 -29 15 -48 20 -19 6 -27 11 -17
11 10 1 34 -6 54 -14z m72 -59 c12 -18 21 -37 21 -42 0 -5 -9 6 -21 25 -19 31
-23 33 -61 28 -43 -6 -41 8 2 16 14 2 28 5 32 6 3 0 16 -14 27 -33z"/>
<path d="M907 1666 c-4 -10 -5 -21 -2 -24 9 -9 17 6 13 25 -3 17 -4 17 -11 -1z"/>
<path d="M1076 1665 c-11 -8 -17 -17 -14 -20 3 -3 16 3 29 14 27 23 14 28 -15
6z"/>
<path d="M872 1648 c-14 -14 -16 -42 -3 -34 7 5 23 46 17 46 -1 0 -7 -5 -14
-12z"/>
<path d="M1000 1620 c-14 -11 -20 -20 -14 -20 7 0 22 9 35 20 31 25 12 26 -21
0z"/>
<path d="M822 1604 c-7 -8 -8 -14 -3 -14 10 0 25 19 20 25 -2 1 -10 -3 -17
-11z"/>
<path d="M938 1584 c-16 -8 -28 -17 -28 -19 0 -11 19 -4 41 15 29 23 24 25
-13 4z"/>
<path d="M868 1544 c-16 -8 -28 -17 -28 -19 0 -11 19 -4 41 15 29 23 24 25
-13 4z"/>
<path d="M624 1499 c-6 -10 12 -28 28 -29 16 0 15 17 -2 28 -14 8 -21 8 -26 1z"/>
<path d="M784 1495 c-10 -8 -14 -15 -8 -15 5 0 19 7 30 15 10 8 14 15 8 15 -5
0 -19 -7 -30 -15z"/>
<path d="M714 1456 c-10 -8 -17 -17 -14 -19 3 -3 16 3 30 13 29 22 14 27 -16
6z"/>
<path d="M639 1410 c-31 -25 -12 -26 21 0 14 11 20 20 14 20 -7 0 -22 -9 -35
-20z"/>
<path d="M414 1428 c-4 -7 -2 -14 4 -16 7 -2 12 -12 12 -23 0 -23 16 -25 24
-2 8 20 -29 59 -40 41z"/>
<path d="M454 1325 c-3 -8 -2 -20 2 -26 4 -7 -9 -3 -29 10 l-36 22 -36 -54
c-27 -40 -36 -63 -33 -86 l3 -31 88 51 c76 44 87 54 87 78 0 41 -34 68 -46 36z"/>
<path d="M1776 1342 c10 -70 14 -82 32 -82 13 0 11 -3 -7 -13 -13 -7 -31 -31
-41 -57 -19 -50 -57 -73 -88 -54 -9 5 -25 8 -35 6 -14 -3 -16 -7 -6 -18 13
-16 91 -19 120 -4 18 10 19 6 20 -162 0 -95 4 -197 8 -226 l8 -54 -34 -16
c-44 -21 -42 -36 5 -28 20 3 42 6 47 6 7 0 12 55 13 148 2 81 6 150 11 155 4
4 13 -61 20 -143 13 -149 13 -151 -8 -174 -27 -29 -27 -36 4 -36 15 0 29 8 36
21 11 22 18 160 19 399 1 84 4 118 10 103 10 -25 13 -84 7 -125 -6 -42 21 -35
29 7 6 32 3 70 -12 148 -9 51 -24 77 -49 87 -28 11 -32 27 -12 54 20 27 9 75
-17 80 -88 18 -85 19 -80 -22z"/>
<path d="M1421 1141 c-51 -7 -72 -30 -51 -56 7 -9 19 -14 26 -11 18 7 30 -14
14 -24 -16 -10 -4 -30 19 -30 20 0 37 18 64 68 15 26 16 36 7 47 -7 8 -18 14
-24 13 -6 0 -31 -4 -55 -7z"/>
<path d="M1413 993 c-21 -3 -30 -9 -27 -17 3 -8 -2 -21 -12 -30 -10 -11 -18
-40 -22 -82 -5 -69 -14 -83 -38 -63 -12 10 -13 9 -8 -5 4 -11 14 -16 25 -13
18 5 19 -2 19 -96 0 -95 17 -276 26 -286 2 -3 10 1 16 7 8 8 13 50 14 115 1
56 3 118 4 137 l2 35 8 -36 c5 -19 14 -73 19 -119 6 -46 15 -88 20 -93 13 -13
23 44 20 121 -1 37 1 106 5 154 6 58 4 97 -3 121 -9 26 -9 46 -1 76 12 44 0
82 -23 79 -7 0 -26 -3 -44 -5z"/>
<path d="M1270 905 c-7 -8 -10 -18 -6 -22 3 -3 6 -1 6 6 0 7 7 10 18 7 9 -3
24 -1 32 4 9 6 10 10 3 10 -6 0 -18 2 -26 5 -7 3 -20 -1 -27 -10z"/>
<path d="M623 723 c-68 -40 -79 -65 -45 -96 15 -14 23 -14 52 -4 49 18 120 56
120 65 0 4 -9 18 -19 31 l-19 24 -57 -32 c-31 -18 -59 -30 -62 -27 -3 2 6 11
19 19 12 8 39 24 58 35 19 12 31 22 25 22 -5 0 -38 -17 -72 -37z"/>
<path d="M1420 459 c0 -18 31 -49 48 -49 7 0 12 5 12 10 0 6 -6 10 -14 10 -8
0 -22 10 -30 22 -12 16 -16 18 -16 7z"/>
<path d="M1377 369 c-11 -6 -30 -9 -43 -6 -28 5 -43 -10 -20 -19 18 -7 86 14
86 27 0 11 -1 11 -23 -2z"/>
</g>
</svg>
