<?xml version="1.0" standalone="no"?>
<!DOCTYPE svg PUBLIC "-//W3C//DTD SVG 20010904//EN"
 "http://www.w3.org/TR/2001/REC-SVG-20010904/DTD/svg10.dtd">
<svg version="1.0" xmlns="http://www.w3.org/2000/svg"
 width="266.000000pt" height="189.000000pt" viewBox="0 0 266.000000 189.000000"
 preserveAspectRatio="xMidYMid meet">

<g transform="translate(0.000000,189.000000) scale(0.100000,-0.100000)"
fill="#c3073f" stroke="none">
<path d="M1373 1883 c-7 -2 -13 -11 -13 -19 0 -12 45 -14 276 -14 257 0 275 1
272 18 -3 16 -24 17 -263 19 -143 1 -266 -1 -272 -4z"/>
<path d="M1091 1776 c-23 -27 -9 -51 29 -51 32 0 35 2 35 30 0 25 -4 31 -26
33 -14 2 -31 -4 -38 -12z"/>
<path d="M1925 1727 c-17 -13 -43 -128 -44 -199 l-1 -28 125 0 c118 0 125 1
125 20 0 19 7 20 145 20 140 0 145 -1 145 -21 0 -19 5 -20 95 -17 52 2 95 -1
95 -5 0 -4 -11 -19 -25 -33 l-25 -25 -334 3 c-184 2 -332 0 -329 -4 2 -5 53
-8 114 -8 105 0 109 -1 109 -21 0 -20 -3 -21 -55 -15 -54 6 -55 6 -55 -19 0
-24 -3 -25 -57 -25 -42 0 -54 -3 -46 -11 6 -6 30 -9 53 -7 l42 4 -4 -44 -3
-43 82 3 c46 2 83 0 83 -4 0 -17 -43 -28 -104 -28 -36 0 -68 -5 -71 -11 -11
-17 4 -24 25 -11 11 7 32 12 46 12 29 0 28 14 8 -136 -12 -88 14 -84 -498 -84
-399 -1 -449 -2 -432 -15 16 -12 68 -15 288 -15 l268 0 0 -60 c0 -53 2 -60 20
-60 18 0 20 7 20 60 l0 60 159 0 c201 0 195 -3 219 138 14 81 22 105 39 117
15 11 25 34 34 86 11 64 11 72 -4 81 -9 5 -17 18 -17 28 0 19 8 20 213 20 200
0 215 1 232 20 11 13 24 59 36 132 17 100 17 114 4 135 l-15 23 -343 0 c-272
0 -347 -3 -362 -13z m115 -77 c0 -6 8 -10 18 -8 11 2 17 -3 16 -14 -1 -10 2
-18 7 -18 5 0 9 -9 9 -20 0 -11 -6 -20 -14 -20 -8 0 -13 -8 -12 -17 1 -12 -6
-18 -19 -18 -11 0 -24 -6 -28 -12 -11 -17 -37 -16 -37 1 0 8 -8 13 -17 12 -10
0 -18 6 -18 14 0 8 -4 20 -8 27 -4 6 -1 17 6 25 7 7 16 21 20 32 4 10 13 16
22 12 8 -3 17 -1 20 4 8 13 35 13 35 0z m558 -17 c-3 -16 -23 -18 -226 -21
-217 -2 -222 -2 -222 18 0 19 6 20 226 20 209 0 225 -1 222 -17z m-8 -58 c0
-13 -32 -15 -225 -15 -193 0 -225 2 -225 15 0 13 32 15 225 15 193 0 225 -2
225 -15z m-460 -258 c0 -5 4 -6 9 -3 5 3 12 -1 15 -10 5 -12 -3 -15 -44 -13
-39 2 -50 6 -50 19 0 13 8 17 35 16 19 0 35 -5 35 -9z m-80 -12 c0 -6 -9 -11
-19 -12 -12 -1 -18 3 -15 11 6 16 34 17 34 1z"/>
<path d="M2003 1613 c-7 -3 -13 -14 -13 -25 0 -14 6 -19 22 -16 13 2 24 10 26
19 3 18 -15 29 -35 22z"/>
<path d="M1062 1703 c-24 -9 8 -33 45 -33 45 0 82 18 62 31 -15 9 -86 11 -107
2z"/>
<path d="M1333 1593 c-39 -5 -44 -23 -8 -23 15 0 25 -5 24 -12 -5 -38 -5 -38
251 -38 160 0 250 4 250 10 0 6 -9 10 -20 10 -11 0 -20 7 -20 15 0 10 11 15
35 15 54 0 42 16 -17 24 -56 6 -440 6 -495 -1z"/>
<path d="M403 1484 c-36 -16 -46 -38 -46 -109 0 -51 19 -101 47 -124 21 -18
39 -5 26 19 -23 42 0 91 26 56 9 -13 10 -25 2 -47 -12 -36 3 -59 38 -59 20 0
24 -5 24 -28 0 -35 -16 -52 -52 -52 -31 0 -53 30 -45 61 11 43 -100 5 -146
-50 -36 -44 -42 -73 -26 -134 l14 -51 58 3 c51 2 57 0 57 -17 0 -22 37 -29
190 -34 l75 -3 6 38 c8 53 20 62 51 37 15 -11 29 -20 32 -20 4 0 16 21 27 46
l19 46 -46 54 c-50 59 -80 79 -136 89 -36 7 -36 7 -17 26 46 46 6 102 -45 64
-23 -17 -39 -8 -62 36 -27 54 -8 92 36 69 28 -15 86 -12 100 5 52 63 -106 123
-207 79z"/>
<path d="M2202 1493 c37 -2 100 -2 140 0 40 1 10 3 -67 3 -77 0 -110 -1 -73
-3z"/>
<path d="M1290 1480 c0 -5 9 -10 19 -10 11 0 23 5 26 10 4 6 -5 10 -19 10 -14
0 -26 -4 -26 -10z"/>
<path d="M1800 1480 c0 -5 9 -10 19 -10 11 0 23 5 26 10 4 6 -5 10 -19 10 -14
0 -26 -4 -26 -10z"/>
<path d="M1220 1440 c0 -5 9 -10 20 -10 11 0 20 5 20 10 0 6 -9 10 -20 10 -11
0 -20 -4 -20 -10z"/>
<path d="M1113 1403 c-46 -5 -48 -8 -58 -84 l-7 -54 81 3 c52 2 81 0 81 -7 0
-13 -29 -20 -105 -24 -52 -3 -49 -3 21 -5 55 -1 85 2 91 11 5 6 15 43 22 81
16 91 15 91 -126 79z m7 -64 c0 -5 -4 -7 -10 -4 -5 3 -10 1 -10 -4 0 -6 7 -11
15 -11 8 0 15 7 15 15 0 8 8 15 18 15 13 0 14 -2 4 -9 -11 -7 -11 -9 2 -14 9
-4 15 -1 13 5 -1 7 7 13 18 15 16 3 17 2 5 -6 -11 -8 -12 -11 -2 -11 8 0 12
-6 10 -12 -5 -15 -106 -20 -114 -6 -9 14 4 38 21 38 8 0 15 -5 15 -11z"/>
<path d="M1270 1390 c0 -5 11 -10 25 -10 14 0 25 5 25 10 0 6 -11 10 -25 10
-14 0 -25 -4 -25 -10z"/>
<path d="M1910 1390 c0 -5 20 -10 45 -10 25 0 45 5 45 10 0 6 -20 10 -45 10
-25 0 -45 -4 -45 -10z"/>
<path d="M1260 1340 c0 -5 11 -10 25 -10 14 0 25 5 25 10 0 6 -11 10 -25 10
-14 0 -25 -4 -25 -10z"/>
<path d="M827 1313 c-3 -5 -8 -34 -12 -66 l-8 -59 82 4 c44 2 81 0 81 -3 0
-18 -33 -28 -95 -32 l-70 -3 83 -2 c95 -2 95 -2 108 107 l7 61 -86 0 c-47 0
-88 -3 -90 -7z m104 -50 c-11 -5 -11 -7 0 -14 26 -16 -5 -33 -38 -21 -15 6
-23 11 -16 11 7 1 10 7 7 14 -3 10 5 14 28 14 18 1 27 -2 19 -4z"/>
<path d="M1256 1301 c-3 -5 5 -11 19 -13 17 -4 25 -1 25 8 0 15 -36 19 -44 5z"/>
<path d="M1900 1300 c0 -5 20 -10 45 -10 25 0 45 5 45 10 0 6 -20 10 -45 10
-25 0 -45 -4 -45 -10z"/>
<path d="M1760 1250 c0 -5 14 -10 30 -10 17 0 30 5 30 10 0 6 -13 10 -30 10
-16 0 -30 -4 -30 -10z"/>
<path d="M1890 1250 c0 -5 20 -10 45 -10 25 0 45 5 45 10 0 6 -20 10 -45 10
-25 0 -45 -4 -45 -10z"/>
<path d="M2300 1222 c-35 -5 -50 -20 -50 -48 0 -24 2 -24 95 -24 89 0 94 1 84
18 -8 13 -20 17 -45 14 -19 -2 -34 0 -34 5 0 20 -26 39 -50 35z"/>
<path d="M1180 1200 c0 -5 6 -10 14 -10 8 0 18 5 21 10 3 6 -3 10 -14 10 -12
0 -21 -4 -21 -10z"/>
<path d="M1240 1200 c0 -6 27 -10 60 -10 33 0 60 4 60 10 0 6 -27 10 -60 10
-33 0 -60 -4 -60 -10z"/>
<path d="M1370 1200 c0 -6 78 -10 215 -10 137 0 215 4 215 10 0 6 -78 10 -215
10 -137 0 -215 -4 -215 -10z"/>
<path d="M1880 1200 c0 -5 20 -10 45 -10 25 0 45 5 45 10 0 6 -20 10 -45 10
-25 0 -45 -4 -45 -10z"/>
<path d="M525 850 l-80 -6 98 -2 c59 -1 97 2 97 8 0 6 -8 9 -17 8 -10 -1 -54
-5 -98 -8z"/>
<path d="M1810 820 c0 -16 7 -20 30 -20 23 0 30 4 30 20 0 16 -7 20 -30 20
-23 0 -30 -4 -30 -20z"/>
<path d="M845 807 c-34 -19 -61 -23 -175 -28 l-135 -5 130 -2 c125 -2 132 -1
190 27 33 16 53 30 45 30 -8 0 -33 -10 -55 -22z"/>
<path d="M468 712 l-97 -3 -16 -51 c-21 -73 -19 -86 18 -108 29 -18 50 -20
249 -20 119 0 223 -3 232 -6 13 -5 12 -10 -6 -35 -17 -22 -30 -29 -56 -29 -27
0 -32 -3 -28 -17 2 -10 10 -36 16 -59 11 -38 4 -129 -16 -210 -5 -18 1 -23 39
-34 33 -9 47 -18 51 -35 3 -13 13 -26 22 -29 13 -5 14 1 8 52 -10 76 -10 78
21 146 l26 60 38 -65 c20 -35 43 -79 50 -97 7 -17 16 -32 19 -32 18 0 82 25
82 32 0 4 -18 90 -41 191 -22 100 -43 204 -45 230 -5 70 -32 102 -91 112 -53
8 -324 12 -475 7z"/>
<path d="M301 235 c-29 -197 -33 -251 -17 -234 2 2 30 98 60 214 31 116 59
218 62 228 4 14 -1 17 -33 17 l-39 0 -33 -225z"/>
<path d="M1178 86 c-78 -32 -124 -56 -120 -63 9 -13 274 95 266 108 -7 13 -6
13 -146 -45z"/>
<path d="M710 15 c0 -13 22 -15 140 -15 118 0 140 2 140 15 0 13 -22 15 -140
15 -118 0 -140 -2 -140 -15z"/>
</g>
</svg>
