<?xml version="1.0" standalone="no"?>
<!DOCTYPE svg PUBLIC "-//W3C//DTD SVG 20010904//EN"
 "http://www.w3.org/TR/2001/REC-SVG-20010904/DTD/svg10.dtd">
<svg version="1.0" xmlns="http://www.w3.org/2000/svg"
 width="225.000000pt" height="225.000000pt" viewBox="0 0 225.000000 225.000000"
 preserveAspectRatio="xMidYMid meet">

<g transform="translate(0.000000,225.000000) scale(0.100000,-0.100000)"
fill="#c3073f" stroke="none">
<path d="M1140 2097 c-80 -46 -221 -128 -315 -182 -93 -54 -271 -156 -395
-228 -124 -71 -233 -138 -243 -149 -15 -18 -17 -51 -17 -375 l0 -356 35 -38
c22 -24 37 -53 41 -78 l6 -39 34 20 34 20 0 351 c0 193 3 347 6 344 10 -9 44
12 44 27 0 18 174 118 193 110 9 -3 110 50 243 127 126 72 295 170 376 217 93
54 145 89 142 97 -3 7 -1 16 5 20 6 3 11 -1 11 -9 0 -13 4 -14 25 -4 27 12 34
48 9 48 -9 0 -12 5 -8 12 4 7 3 8 -5 4 -6 -4 -9 -11 -7 -15 3 -4 -21 -20 -52
-36 -31 -16 -59 -31 -62 -34 -8 -10 -190 -115 -200 -116 -3 0 -23 -12 -45 -26
-22 -14 -60 -37 -85 -50 -25 -13 -47 -27 -50 -30 -3 -4 -42 -25 -87 -47 -44
-23 -83 -45 -85 -49 -1 -4 -25 -19 -53 -33 -27 -14 -75 -42 -106 -62 -31 -21
-64 -38 -73 -38 -10 0 -15 -4 -12 -9 5 -7 -15 -21 -30 -21 -29 0 54 54 206
136 19 11 37 21 40 24 7 7 213 125 220 125 3 0 16 8 30 17 44 28 222 132 328
192 l102 58 0 57 c0 57 -19 101 -43 101 -7 0 -77 -37 -157 -83z m230 -107 c0
-5 -5 -10 -11 -10 -5 0 -7 5 -4 10 3 6 8 10 11 10 2 0 4 -4 4 -10z m-60 -30
c0 -5 -5 -10 -11 -10 -5 0 -7 5 -4 10 3 6 8 10 11 10 2 0 4 -4 4 -10z m-931
-508 c-22 -15 -49 -25 -49 -17 0 2 15 12 32 23 38 24 53 19 17 -6z"/>
<path d="M530 2129 c-25 -16 -50 -29 -56 -29 -6 0 -17 -7 -24 -15 -7 -9 -19
-14 -27 -11 -8 3 -12 2 -9 -2 6 -9 -211 -135 -231 -135 -15 0 -19 -292 -4
-301 5 -3 104 49 220 116 l211 122 0 123 c0 104 -3 127 -17 142 -17 18 -19 18
-63 -10z m30 -44 c0 -7 -7 -18 -15 -22 -18 -11 -32 -73 -16 -73 6 0 11 9 11
21 0 11 7 28 16 37 16 15 16 12 10 -43 -4 -33 -7 -74 -8 -91 0 -25 -7 -34 -37
-50 -20 -10 -42 -25 -49 -31 -22 -21 -30 -15 -29 24 1 22 8 38 17 41 13 5 13
3 1 -11 -8 -10 -9 -17 -3 -17 13 0 26 36 17 49 -3 5 -16 -1 -30 -15 -38 -38
-45 -31 -45 44 0 58 3 69 21 80 25 16 36 8 42 -33 3 -22 4 -17 6 16 0 29 6 49
14 52 10 4 13 -2 11 -21 -3 -24 -3 -24 4 -5 15 46 62 83 62 48z m-210 -174 c0
-5 -13 -16 -30 -25 -38 -18 -39 -7 -2 16 34 20 32 20 32 9z"/>
<path d="M491 1953 c-1 -24 3 -31 13 -27 9 4 16 -3 19 -18 4 -22 4 -22 6 3 0
14 6 30 12 36 7 7 3 9 -14 6 -19 -4 -26 0 -30 14 -3 10 -5 5 -6 -14z"/>
<path d="M1522 1936 c-100 -57 -182 -101 -183 -97 0 3 -6 -7 -13 -22 -9 -21
-67 -59 -252 -166 -131 -75 -350 -202 -487 -280 l-247 -143 0 -154 c0 -150 1
-154 19 -144 11 5 22 10 25 10 3 0 6 -72 6 -160 0 -151 -1 -160 -21 -170 -11
-6 -32 -9 -47 -7 -15 2 -21 2 -15 0 17 -6 -2 -43 -22 -43 -17 0 -20 -17 -5
-22 16 -5 -26 -65 -50 -71 -23 -6 -70 30 -82 63 -5 13 -8 12 -24 -3 -24 -23
-24 -124 -1 -180 26 -60 115 -84 165 -44 19 15 39 68 47 122 4 25 10 45 14 45
15 -1 41 -29 41 -45 0 -13 5 -16 22 -12 17 5 87 -31 273 -138 139 -80 259
-145 269 -145 9 0 75 34 147 75 71 41 132 75 134 75 3 0 5 -8 5 -17 0 -26 37
-83 55 -83 21 0 33 29 30 75 -2 22 -4 41 -5 43 -1 1 -3 5 -5 10 -8 31 -23 42
-68 53 -68 16 -186 65 -210 87 -18 16 -47 64 -47 77 0 3 17 5 38 6 20 0 46 4
57 8 16 7 8 12 -40 25 -33 10 -76 27 -97 37 -36 18 -38 22 -38 65 l0 46 43 -7
c23 -4 42 -8 42 -9 0 -16 34 -47 75 -69 71 -37 137 -37 168 -2 18 21 20 27 8
31 -14 5 -33 80 -23 90 3 3 24 -8 47 -25 23 -16 58 -35 78 -42 l36 -12 -30
-23 c-16 -13 -35 -24 -42 -24 -7 0 -24 -7 -38 -16 -19 -13 -22 -19 -13 -31 16
-19 5 -27 -20 -13 -18 9 -21 8 -21 -8 0 -23 -19 -42 -43 -42 -12 0 -17 5 -14
14 5 11 0 11 -24 -2 -16 -9 -29 -22 -29 -27 0 -6 32 -28 70 -49 l70 -38 38 23
c175 104 222 138 222 164 0 31 14 39 34 19 33 -32 18 -63 -83 -167 -30 -31
-52 -57 -48 -57 4 0 93 50 198 110 105 61 192 110 193 110 2 0 6 -23 10 -51
12 -91 90 -138 204 -125 75 9 129 45 134 90 2 19 0 45 -5 58 l-8 23 -13 -23
c-22 -41 -70 -62 -141 -62 -114 0 -181 45 -159 108 18 52 110 76 219 57 24 -4
26 -3 10 4 -11 5 -36 10 -55 11 -33 1 -34 1 -15 16 11 8 21 23 21 32 1 9 4 40
8 67 l7 50 -173 99 c-95 55 -175 101 -178 104 -3 2 4 8 14 14 56 31 57 35 56
227 -1 165 -3 179 -22 195 -20 17 -24 17 -63 -7 -42 -25 -271 -155 -299 -169
-27 -14 -28 -18 -29 -86 0 -78 -2 -82 -70 -120 -44 -25 -57 -27 -57 -9 0 20
-37 47 -67 48 -42 2 -103 -28 -103 -51 0 -10 -4 -22 -10 -25 -5 -3 -10 -15
-10 -26 0 -12 4 -17 11 -14 5 4 18 0 28 -9 16 -15 19 -13 37 22 16 30 26 38
53 40 19 2 38 -1 43 -6 5 -5 9 -35 9 -67 0 -58 -18 -95 -48 -95 -7 0 -13 -9
-13 -20 0 -15 -7 -20 -29 -20 -43 0 -63 24 -55 66 5 30 4 33 -14 29 -12 -2
-58 -26 -104 -53 -46 -27 -93 -54 -105 -60 l-22 -12 1 160 c1 100 6 164 12
169 15 12 482 280 499 287 10 4 13 -6 11 -39 -2 -23 1 -49 5 -55 6 -9 61 18
197 97 104 60 195 115 202 121 18 16 13 389 -5 412 -7 8 -10 18 -6 21 23 23
-36 -6 -195 -97z m168 11 c0 -17 -67 -50 -82 -41 -7 4 -8 2 -4 -4 4 -6 -6 -18
-23 -27 -38 -19 -41 -19 -41 3 0 20 38 42 70 42 11 0 20 7 20 16 0 8 4 13 9 9
5 -3 12 -1 16 5 9 15 35 12 35 -3z m-67 -180 c-14 -23 -128 -147 -136 -147 -4
0 -7 35 -5 78 l3 77 65 5 c73 6 83 4 73 -13z m-2 -181 c-17 -20 -192 -117
-204 -113 -10 3 188 124 207 126 5 1 3 -5 -3 -13z m89 -276 c0 -174 -1 -179
-22 -195 -42 -30 -297 -175 -308 -175 -7 0 -10 60 -8 182 l3 183 160 92 c87
51 163 93 167 93 4 0 8 -81 8 -180z m-310 150 c0 -5 -4 -10 -10 -10 -5 0 -10
5 -10 10 0 6 5 10 10 10 6 0 10 -4 10 -10z m-570 -41 c0 -17 -20 -49 -31 -49
-16 0 -22 29 -9 45 14 17 40 20 40 4z m-132 -41 c-4 -12 -174 -117 -191 -118
-26 -1 10 29 88 76 96 56 109 61 103 42z m139 -22 c-13 -10 -14 -15 -6 -18 9
-3 8 -6 -3 -10 -20 -8 -18 20 3 33 22 14 26 10 6 -5z m-67 -251 c2 -137 2
-298 1 -357 l-1 -106 -147 -85 c-82 -47 -156 -89 -166 -93 -16 -6 -17 13 -15
352 3 347 4 359 23 369 11 6 32 18 47 28 15 11 33 15 39 11 7 -4 9 -3 6 4 -10
15 116 84 140 76 14 -5 15 -4 4 4 -11 8 -6 14 25 30 21 11 40 19 40 19 1 -1 3
-114 4 -252z m1352 -596 c-32 -25 -94 -41 -145 -36 l-42 4 48 1 c52 2 147 38
147 55 0 6 3 7 8 3 4 -4 -4 -16 -16 -27z m-807 -241 c1 -19 -2 -25 -12 -21
-12 5 -12 7 -1 14 10 7 10 9 -2 10 -12 0 -12 2 -1 6 11 5 11 7 0 15 -12 8 -11
9 1 6 8 -3 15 -16 15 -30z"/>
<path d="M1556 1328 c-22 -31 -21 -68 2 -68 30 0 56 35 43 58 -6 11 -7 22 -4
26 3 3 -1 6 -10 6 -9 0 -23 -10 -31 -22z m29 -18 c-2 -27 -20 -46 -30 -31 -9
16 4 51 19 51 7 0 12 -9 11 -20z"/>
<path d="M1517 1263 c8 -50 13 -55 13 -10 0 20 -4 38 -9 42 -6 3 -7 -10 -4
-32z"/>
<path d="M1469 1260 c-10 -6 -14 -19 -11 -44 5 -41 12 -44 36 -17 12 13 15 27
10 45 -7 28 -11 30 -35 16z m18 -15 c-4 -8 -2 -17 4 -20 10 -7 3 -25 -11 -25
-7 0 -8 43 -1 58 5 10 12 -1 8 -13z"/>
<path d="M1589 1253 c-11 -13 -11 -17 -1 -20 6 -3 9 -10 5 -16 -3 -7 -2 -8 3
-4 7 7 15 57 9 57 -2 0 -9 -7 -16 -17z"/>
<path d="M1551 1208 c-1 -29 12 -37 25 -16 4 6 3 8 -4 4 -6 -3 -12 3 -15 16
-4 20 -4 19 -6 -4z"/>
<path d="M1526 1186 c5 -13 4 -17 -4 -12 -8 4 -12 0 -12 -11 0 -16 1 -16 17 0
14 14 15 19 4 29 -10 11 -11 9 -5 -6z"/>
<path d="M1582 1141 c-28 -25 -52 -49 -52 -53 0 -4 12 5 27 20 19 19 28 23 31
13 2 -7 -8 -24 -24 -37 -16 -13 -24 -23 -18 -24 6 0 19 9 29 20 10 11 21 18
25 15 7 -4 50 48 50 61 0 4 -11 -3 -24 -15 -14 -13 -26 -18 -30 -13 -3 6 6 20
20 31 15 12 25 23 23 25 -2 2 -28 -17 -57 -43z"/>
<path d="M1478 1143 c10 -4 10 -8 0 -21 -12 -15 -11 -16 5 -3 9 7 17 17 17 22
0 5 -8 9 -17 8 -12 0 -13 -2 -5 -6z"/>
<path d="M745 1299 c-4 -6 -5 -12 -2 -15 2 -3 7 2 10 11 7 17 1 20 -8 4z"/>
<path d="M473 1174 c4 -4 1 -14 -6 -23 -11 -14 -10 -15 8 -1 11 8 21 15 23 16
2 1 -5 5 -15 8 -9 4 -14 4 -10 0z"/>
<path d="M633 1154 c0 -14 2 -21 6 -17 3 4 9 10 12 13 4 3 1 10 -6 17 -10 9
-12 6 -12 -13z"/>
<path d="M671 1134 c0 -11 3 -14 6 -6 3 7 2 16 -1 19 -3 4 -6 -2 -5 -13z"/>
<path d="M626 1083 c-6 -14 -5 -15 5 -6 7 7 10 15 7 18 -3 3 -9 -2 -12 -12z"/>
<path d="M485 1061 c-3 -5 -1 -12 5 -16 5 -3 10 1 10 9 0 18 -6 21 -15 7z"/>
<path d="M573 1025 c0 -8 4 -12 9 -9 5 3 6 10 3 15 -9 13 -12 11 -12 -6z"/>
<path d="M680 1029 c0 -5 5 -7 10 -4 6 3 10 8 10 11 0 2 -4 4 -10 4 -5 0 -10
-5 -10 -11z"/>
<path d="M650 1022 c0 -5 7 -15 15 -22 8 -7 15 -9 15 -6 0 4 -7 14 -15 22 -8
9 -15 11 -15 6z"/>
<path d="M492 971 c-11 -7 -11 -9 0 -14 9 -3 15 1 15 9 0 8 -1 14 -1 14 -1 0
-7 -4 -14 -9z"/>
<path d="M656 968 c3 -5 10 -6 15 -3 13 9 11 12 -6 12 -8 0 -12 -4 -9 -9z"/>
<path d="M680 949 c0 -5 5 -7 10 -4 6 3 10 8 10 11 0 2 -4 4 -10 4 -5 0 -10
-5 -10 -11z"/>
<path d="M613 920 c-7 -14 -12 -21 -12 -16 -1 5 -16 -7 -35 -26 -22 -22 -36
-48 -39 -69 l-4 -34 -1 33 c-1 20 -6 31 -12 27 -6 -4 -8 -11 -5 -16 6 -8 -8
-13 -27 -10 -5 0 -8 -22 -8 -51 0 -57 17 -57 23 0 2 18 7 35 11 40 4 4 7 2 6
-3 -1 -6 -2 -16 -1 -24 1 -19 31 6 31 26 0 12 3 13 14 4 11 -10 16 -8 20 7 4
10 22 31 41 46 19 16 35 36 35 45 0 13 -2 14 -9 2 -7 -11 -10 -7 -13 15 l-4
29 -11 -25z"/>
<path d="M669 913 c-13 -16 -12 -17 4 -4 9 7 17 15 17 17 0 8 -8 3 -21 -13z"/>
<path d="M530 900 c-9 -6 -10 -10 -3 -10 6 0 15 5 18 10 8 12 4 12 -15 0z"/>
<path d="M605 627 c-22 -13 -41 -31 -43 -41 -4 -17 0 -16 38 5 39 22 59 44 48
54 -2 2 -21 -6 -43 -18z m25 -1 c0 -2 -11 -11 -25 -20 -14 -9 -25 -13 -25 -8
0 5 10 14 23 20 27 13 27 13 27 8z"/>
<path d="M1224 1784 c-18 -14 -18 -15 4 -4 12 6 22 13 22 15 0 8 -5 6 -26 -11z"/>
<path d="M1104 1714 c-18 -14 -18 -15 4 -4 12 6 22 13 22 15 0 8 -5 6 -26 -11z"/>
<path d="M908 1604 c-38 -20 -36 -28 2 -9 17 9 30 18 30 20 0 7 -1 6 -32 -11z"/>
<path d="M527 1383 c-4 -3 -7 -11 -7 -17 0 -6 5 -5 12 2 6 6 9 14 7 17 -3 3
-9 2 -12 -2z"/>
<path d="M170 741 c0 -5 7 -12 16 -15 14 -5 15 -4 4 9 -14 17 -20 19 -20 6z"/>
<path d="M2103 660 c15 -12 27 -29 28 -38 0 -11 2 -13 6 -4 6 15 -13 39 -41
53 -13 6 -11 2 7 -11z"/>
<path d="M1929 663 c-15 -2 -36 -15 -49 -28 -40 -42 4 -86 89 -89 115 -3 163
71 70 108 -39 16 -57 17 -110 9z m48 -26 c3 -4 -4 -7 -17 -7 -17 0 -21 -3 -13
-11 8 -8 17 -8 32 0 25 14 53 2 57 -23 2 -12 -6 -16 -34 -15 -32 0 -34 1 -14
9 33 14 27 19 -20 17 -36 -2 -43 1 -46 18 -2 16 2 20 23 20 13 -1 28 -5 32 -8z"/>
<path d="M1489 192 c-8 -12 -19 -17 -31 -14 -17 4 -17 2 -8 -19 28 -59 139
-94 177 -56 34 33 -13 72 -49 41 -12 -11 -18 -13 -14 -6 4 6 2 12 -3 12 -6 0
-11 -6 -11 -12 0 -10 -2 -10 -9 0 -4 8 -11 13 -15 13 -3 0 -13 2 -21 6 -14 5
-14 7 0 23 10 12 13 20 6 24 -6 4 -16 -2 -22 -12z"/>
<path d="M1519 180 c-19 -12 -4 -24 32 -25 16 0 29 0 29 1 0 11 -50 30 -61 24z
m25 -8 c3 -5 -1 -9 -9 -9 -8 0 -12 4 -9 9 3 4 7 8 9 8 2 0 6 -4 9 -8z"/>
</g>
</svg>
